<svg width="18" height="18" viewBox="0 0 18 18" fill="none" xmlns="http://www.w3.org/2000/svg">
<path d="M4.8 10.4H10.4V9H4.8V10.4ZM4.8 8.3H13.2V6.9H4.8V8.3ZM4.8 6.2H13.2V4.8H4.8V6.2ZM2 16V3.4C2 3.015 2.13708 2.68542 2.41125 2.41125C2.68542 2.13708 3.015 2 3.4 2H14.6C14.985 2 15.3146 2.13708 15.5887 2.41125C15.8629 2.68542 16 3.015 16 3.4V11.8C16 12.185 15.8629 12.5146 15.5887 12.7887C15.3146 13.0629 14.985 13.2 14.6 13.2H4.8L2 16ZM4.205 11.8H14.6V3.4H3.4V12.5875L4.205 11.8Z" fill="#6E6E6E"/>
</svg>
