<svg width="18" height="18" viewBox="0 0 18 18" fill="none" xmlns="http://www.w3.org/2000/svg">
<path d="M3.55556 16.0002C3.12778 16.0002 2.76157 15.8479 2.45694 15.5433C2.15231 15.2387 2 14.8724 2 14.4447V3.55578C2 3.12801 2.15231 2.7618 2.45694 2.45717C2.76157 2.15254 3.12778 2.00023 3.55556 2.00023H6.82222C7.24427 1.99984 7.05468 2.00006 7.61415 2.00007C8.17361 2.00007 8.50741 2.00009 9 2.00009C9.49259 2.00009 9.51852 2.00039 10.037 2.00024C10.5556 2.00008 10.5556 2.00006 11.1778 2.00023H14.4444C14.8722 2.00023 15.2384 2.15254 15.5431 2.45717C15.8477 2.7618 16 3.12801 16 3.55578V14.4447C16 14.8724 15.8477 15.2387 15.5431 15.5433C15.2384 15.8479 14.8722 16.0002 14.4444 16.0002H3.55556ZM3.55556 13.5502C4.25556 12.8632 5.06898 12.322 5.99583 11.9266C6.92269 11.5312 7.92407 11.3336 9 11.3336C10.0759 11.3336 11.0773 11.5312 12.0042 11.9266C12.931 12.322 13.7444 12.8632 14.4444 13.5502V3.55578H3.55556V13.5502ZM9 9.778C9.75185 9.778 10.3935 9.51226 10.925 8.98078C11.4565 8.4493 11.7222 7.80763 11.7222 7.05578C11.7222 6.30393 11.4565 5.66226 10.925 5.13078C10.3935 4.5993 9.75185 4.33356 9 4.33356C8.24815 4.33356 7.60648 4.5993 7.075 5.13078C6.54352 5.66226 6.27778 6.30393 6.27778 7.05578C6.27778 7.80763 6.54352 8.4493 7.075 8.98078C7.60648 9.51226 8.24815 9.778 9 9.778ZM5.11111 14.4447H12.8889V14.2502C12.3444 13.7965 11.7417 13.4562 11.0806 13.2294C10.4194 13.0025 9.72593 12.8891 9 12.8891C8.27407 12.8891 7.58055 13.0025 6.91944 13.2294C6.25833 13.4562 5.65556 13.7965 5.11111 14.2502V14.4447ZM9 8.22245C8.67593 8.22245 8.40046 8.10902 8.17361 7.88217C7.94676 7.65532 7.83333 7.37986 7.83333 7.05578C7.83333 6.73171 7.94676 6.45624 8.17361 6.22939C8.40046 6.00254 8.67593 5.88912 9 5.88912C9.32407 5.88912 9.59954 6.00254 9.82639 6.22939C10.0532 6.45624 10.1667 6.73171 10.1667 7.05578C10.1667 7.37986 10.0532 7.65532 9.82639 7.88217C9.59954 8.10902 9.32407 8.22245 9 8.22245Z" fill="#6E6E6E"/>
</svg>
