<svg width="14" height="14" viewBox="0 0 18 18" fill="none" xmlns="http://www.w3.org/2000/svg">
<g clip-path="url(#clip0_404_3714)">
<path d="M15.8806 5.1088C16.2771 4.71236 16.4999 4.17465 16.5 3.61394C16.5001 3.05323 16.2774 2.51545 15.8809 2.11892C15.4845 1.72239 14.9468 1.49958 14.3861 1.49951C13.8254 1.49944 13.2876 1.72212 12.8911 2.11855L2.88157 12.1303C2.70744 12.3039 2.57866 12.5177 2.50657 12.7528L1.51582 16.0168C1.49644 16.0817 1.49498 16.1506 1.51159 16.2162C1.5282 16.2818 1.56226 16.3417 1.61017 16.3895C1.65808 16.4374 1.71804 16.4713 1.78369 16.4879C1.84935 16.5044 1.91824 16.5028 1.98307 16.4833L5.24782 15.4933C5.4827 15.4219 5.69645 15.2939 5.87032 15.1205L15.8806 5.1088Z" stroke="white" stroke-width="1.5" stroke-linecap="round" stroke-linejoin="round"/>
<path d="M11.25 3.75L14.25 6.75" stroke="white" stroke-width="1.5" stroke-linecap="round" stroke-linejoin="round"/>
</g>
<defs>
<clipPath id="clip0_404_3714">
<rect width="18" height="18" fill="white"/>
</clipPath>
</defs>
</svg>
