<svg width="28" height="28" viewBox="0 0 32 32" fill="none" xmlns="http://www.w3.org/2000/svg">
<path d="M13.6907 28C13.9247 28.4054 14.2614 28.742 14.6667 28.976C15.0721 29.21 15.5319 29.3332 16 29.3332C16.4681 29.3332 16.9279 29.21 17.3333 28.976C17.7387 28.742 18.0753 28.4054 18.3093 28" stroke="black" stroke-width="2.66667" stroke-linecap="round" stroke-linejoin="round"/>
<path d="M18.5547 3.08537C17.3513 2.67986 16.0687 2.56664 14.8129 2.75507C13.5571 2.9435 12.3642 3.42816 11.3329 4.16897C10.3015 4.90979 9.46131 5.88548 8.88176 7.01536C8.30221 8.14524 7.99996 9.39685 7.99999 10.6667C7.99999 16.6654 6.11866 18.608 4.34666 20.436C4.17275 20.6272 4.05813 20.8647 4.01674 21.1198C3.97534 21.3748 4.00894 21.6364 4.11347 21.8727C4.218 22.109 4.38894 22.3099 4.6055 22.4508C4.82207 22.5918 5.07492 22.6668 5.33332 22.6667H26.6667C26.9251 22.6668 27.1779 22.5918 27.3945 22.4508C27.611 22.3099 27.782 22.109 27.8865 21.8727C27.991 21.6364 28.0246 21.3748 27.9832 21.1198C27.9418 20.8647 27.8272 20.6272 27.6533 20.436C27.3789 20.1535 27.1186 19.8575 26.8733 19.5494" stroke="black" stroke-width="2.66667" stroke-linecap="round" stroke-linejoin="round"/>
<path d="M24 14.6667C26.2091 14.6667 28 12.8758 28 10.6667C28 8.45755 26.2091 6.66669 24 6.66669C21.7909 6.66669 20 8.45755 20 10.6667C20 12.8758 21.7909 14.6667 24 14.6667Z" stroke="#D61125" stroke-width="2.66667" stroke-linecap="round" stroke-linejoin="round"/>
</svg>
