<svg width="17" height="16" viewBox="0 0 17 16" fill="none" xmlns="http://www.w3.org/2000/svg">
<path d="M8.02447 1.46352C8.17415 1.00287 8.82585 1.00287 8.97553 1.46353L10.1839 5.18237C10.2508 5.38838 10.4428 5.52786 10.6594 5.52786H14.5696C15.054 5.52786 15.2554 6.14767 14.8635 6.43237L11.7001 8.73075C11.5248 8.85807 11.4515 9.08375 11.5184 9.28976L12.7268 13.0086C12.8764 13.4693 12.3492 13.8523 11.9573 13.5676L8.79389 11.2693C8.61865 11.1419 8.38135 11.1419 8.20611 11.2693L5.04267 13.5676C4.65081 13.8523 4.12357 13.4693 4.27325 13.0086L5.48157 9.28976C5.54851 9.08375 5.47518 8.85807 5.29994 8.73075L2.1365 6.43237C1.74464 6.14767 1.94603 5.52786 2.43039 5.52786H6.34062C6.55723 5.52786 6.74921 5.38838 6.81614 5.18237L8.02447 1.46352Z" fill="#38580C"/>
</svg>
