<svg width="20" height="20" viewBox="0 0 20 20" fill="none" xmlns="http://www.w3.org/2000/svg">
<path d="M17.5 15.8333H4.16667V2.49996C4.16667 2.27895 4.07887 2.06698 3.92259 1.9107C3.76631 1.75442 3.55435 1.66663 3.33333 1.66663C3.11232 1.66663 2.90036 1.75442 2.74408 1.9107C2.5878 2.06698 2.5 2.27895 2.5 2.49996V16.6666C2.5 16.8876 2.5878 17.0996 2.74408 17.2559C2.90036 17.4122 3.11232 17.5 3.33333 17.5H17.5C17.721 17.5 17.933 17.4122 18.0893 17.2559C18.2455 17.0996 18.3333 16.8876 18.3333 16.6666C18.3333 16.4456 18.2455 16.2337 18.0893 16.0774C17.933 15.9211 17.721 15.8333 17.5 15.8333Z" fill="#464255"/>
<path d="M5.83325 9.16671V13.3334C5.83325 13.5544 5.92105 13.7663 6.07733 13.9226C6.23361 14.0789 6.44557 14.1667 6.66659 14.1667C6.8876 14.1667 7.09956 14.0789 7.25584 13.9226C7.41212 13.7663 7.49992 13.5544 7.49992 13.3334V9.16671C7.49992 8.94569 7.41212 8.73373 7.25584 8.57745C7.09956 8.42117 6.8876 8.33337 6.66659 8.33337C6.44557 8.33337 6.23361 8.42117 6.07733 8.57745C5.92105 8.73373 5.83325 8.94569 5.83325 9.16671Z" fill="#464255"/>
<path d="M9.16675 4.99996V13.3333C9.16675 13.5543 9.25455 13.7663 9.41083 13.9225C9.56711 14.0788 9.77907 14.1666 10.0001 14.1666C10.2211 14.1666 10.4331 14.0788 10.5893 13.9225C10.7456 13.7663 10.8334 13.5543 10.8334 13.3333V4.99996C10.8334 4.77895 10.7456 4.56698 10.5893 4.4107C10.4331 4.25442 10.2211 4.16663 10.0001 4.16663C9.77907 4.16663 9.56711 4.25442 9.41083 4.4107C9.25455 4.56698 9.16675 4.77895 9.16675 4.99996Z" fill="#464255"/>
<path d="M12.5 6.66671V13.3334C12.5 13.5544 12.5878 13.7663 12.7441 13.9226C12.9004 14.0789 13.1123 14.1667 13.3333 14.1667C13.5543 14.1667 13.7663 14.0789 13.9226 13.9226C14.0789 13.7663 14.1667 13.5544 14.1667 13.3334V6.66671C14.1667 6.44569 14.0789 6.23373 13.9226 6.07745C13.7663 5.92117 13.5543 5.83337 13.3333 5.83337C13.1123 5.83337 12.9004 5.92117 12.7441 6.07745C12.5878 6.23373 12.5 6.44569 12.5 6.66671Z" fill="#464255"/>
<path d="M15.8333 2.49996V13.3333C15.8333 13.5543 15.921 13.7663 16.0773 13.9225C16.2336 14.0788 16.4456 14.1666 16.6666 14.1666C16.8876 14.1666 17.0996 14.0788 17.2558 13.9225C17.4121 13.7663 17.4999 13.5543 17.4999 13.3333V2.49996C17.4999 2.27895 17.4121 2.06698 17.2558 1.9107C17.0996 1.75442 16.8876 1.66663 16.6666 1.66663C16.4456 1.66663 16.2336 1.75442 16.0773 1.9107C15.921 2.06698 15.8333 2.27895 15.8333 2.49996Z" fill="#464255"/>
</svg>
