<svg xmlns="http://www.w3.org/2000/svg" xmlns:xlink="http://www.w3.org/1999/xlink" width="1400" zoomAndPan="magnify" viewBox="0 0 1050 576" height="768" preserveAspectRatio="xMidYMid meet" version="1.0"><defs><clipPath id="1dbd4e2e02"><path d="M 291.144531 519 L 571 519 L 571 562.960938 L 291.144531 562.960938 Z M 291.144531 519 " clip-rule="nonzero"/></clipPath><clipPath id="c04d6ea1ff"><path d="M 291.144531 161 L 571 161 L 571 206 L 291.144531 206 Z M 291.144531 161 " clip-rule="nonzero"/></clipPath><clipPath id="b98868fcea"><path d="M 499 519 L 571 519 L 571 562.960938 L 499 562.960938 Z M 499 519 " clip-rule="nonzero"/></clipPath></defs><path fill="#57a3ff" d="M 719.761719 147.707031 C 719.761719 149.785156 719.710938 151.863281 719.605469 153.9375 C 719.503906 156.015625 719.351562 158.085938 719.148438 160.15625 C 718.945312 162.222656 718.691406 164.285156 718.386719 166.339844 C 718.082031 168.394531 717.726562 170.441406 717.324219 172.480469 C 716.917969 174.519531 716.464844 176.546875 715.960938 178.5625 C 715.453125 180.578125 714.902344 182.578125 714.300781 184.570312 C 713.695312 186.558594 713.046875 188.53125 712.347656 190.488281 C 711.648438 192.441406 710.898438 194.382812 710.105469 196.300781 C 709.3125 198.222656 708.46875 200.121094 707.582031 202 C 706.695312 203.878906 705.761719 205.734375 704.785156 207.566406 C 703.804688 209.398438 702.78125 211.207031 701.714844 212.988281 C 700.648438 214.769531 699.539062 216.527344 698.382812 218.253906 C 697.230469 219.980469 696.035156 221.679688 694.800781 223.351562 C 693.5625 225.019531 692.285156 226.65625 690.96875 228.261719 C 689.652344 229.871094 688.296875 231.441406 686.902344 232.984375 C 685.507812 234.523438 684.078125 236.027344 682.609375 237.496094 C 681.144531 238.964844 679.640625 240.398438 678.101562 241.792969 C 676.5625 243.191406 674.992188 244.546875 673.386719 245.863281 C 671.785156 247.183594 670.148438 248.460938 668.480469 249.699219 C 666.8125 250.9375 665.117188 252.132812 663.390625 253.289062 C 661.664062 254.441406 659.910156 255.554688 658.128906 256.621094 C 656.351562 257.691406 654.542969 258.714844 652.714844 259.695312 C 650.882812 260.675781 649.03125 261.609375 647.152344 262.496094 C 645.277344 263.386719 643.378906 264.226562 641.460938 265.023438 C 639.542969 265.816406 637.609375 266.566406 635.652344 267.265625 C 633.699219 267.964844 631.730469 268.617188 629.742188 269.21875 C 627.753906 269.824219 625.753906 270.378906 623.742188 270.882812 C 621.730469 271.386719 619.703125 271.84375 617.667969 272.246094 C 615.632812 272.652344 613.585938 273.007812 611.535156 273.3125 C 609.480469 273.617188 607.421875 273.871094 605.355469 274.078125 C 603.289062 274.28125 601.21875 274.433594 599.148438 274.535156 C 597.074219 274.636719 595 274.6875 592.921875 274.6875 C 590.847656 274.6875 588.773438 274.636719 586.699219 274.535156 C 584.625 274.433594 582.558594 274.28125 580.492188 274.078125 C 578.425781 273.871094 576.367188 273.617188 574.3125 273.3125 C 572.257812 273.007812 570.214844 272.652344 568.179688 272.25 C 566.144531 271.84375 564.117188 271.386719 562.105469 270.882812 C 560.089844 270.378906 558.089844 269.824219 556.105469 269.21875 C 554.117188 268.617188 552.148438 267.964844 550.191406 267.265625 C 548.238281 266.566406 546.304688 265.816406 544.386719 265.023438 C 542.46875 264.226562 540.570312 263.386719 538.695312 262.496094 C 536.816406 261.609375 534.964844 260.675781 533.132812 259.695312 C 531.300781 258.714844 529.496094 257.691406 527.714844 256.621094 C 525.9375 255.554688 524.183594 254.441406 522.457031 253.289062 C 520.730469 252.132812 519.035156 250.9375 517.367188 249.699219 C 515.699219 248.460938 514.0625 247.183594 512.457031 245.863281 C 510.855469 244.546875 509.28125 243.191406 507.746094 241.792969 C 506.207031 240.398438 504.703125 238.964844 503.234375 237.496094 C 501.769531 236.027344 500.335938 234.523438 498.945312 232.984375 C 497.550781 231.441406 496.195312 229.871094 494.878906 228.261719 C 493.558594 226.65625 492.285156 225.019531 491.046875 223.351562 C 489.808594 221.679688 488.617188 219.984375 487.460938 218.253906 C 486.308594 216.527344 485.199219 214.773438 484.132812 212.988281 C 483.066406 211.207031 482.042969 209.398438 481.0625 207.566406 C 480.085938 205.734375 479.152344 203.878906 478.265625 202 C 477.375 200.121094 476.535156 198.222656 475.742188 196.300781 C 474.945312 194.382812 474.199219 192.441406 473.5 190.488281 C 472.800781 188.53125 472.152344 186.558594 471.546875 184.570312 C 470.945312 182.582031 470.390625 180.578125 469.886719 178.5625 C 469.382812 176.546875 468.929688 174.519531 468.523438 172.480469 C 468.117188 170.441406 467.765625 168.394531 467.460938 166.339844 C 467.15625 164.285156 466.902344 162.222656 466.695312 160.15625 C 466.492188 158.085938 466.339844 156.015625 466.238281 153.9375 C 466.136719 151.863281 466.085938 149.785156 466.085938 147.707031 C 466.085938 145.628906 466.136719 143.554688 466.238281 141.476562 C 466.339844 139.402344 466.492188 137.332031 466.699219 135.261719 C 466.902344 133.195312 467.15625 131.132812 467.460938 129.078125 C 467.765625 127.019531 468.117188 124.972656 468.523438 122.9375 C 468.929688 120.898438 469.382812 118.871094 469.886719 116.855469 C 470.390625 114.839844 470.945312 112.835938 471.546875 110.847656 C 472.152344 108.859375 472.800781 106.886719 473.5 104.929688 C 474.199219 102.972656 474.949219 101.035156 475.742188 99.113281 C 476.535156 97.195312 477.378906 95.296875 478.265625 93.417969 C 479.152344 91.539062 480.085938 89.683594 481.0625 87.851562 C 482.042969 86.015625 483.066406 84.210938 484.132812 82.425781 C 485.199219 80.644531 486.308594 78.890625 487.464844 77.160156 C 488.617188 75.433594 489.8125 73.734375 491.046875 72.066406 C 492.285156 70.398438 493.5625 68.757812 494.878906 67.152344 C 496.195312 65.546875 497.550781 63.972656 498.945312 62.433594 C 500.339844 60.894531 501.769531 59.390625 503.238281 57.917969 C 504.707031 56.449219 506.207031 55.019531 507.746094 53.621094 C 509.285156 52.226562 510.855469 50.871094 512.460938 49.550781 C 514.066406 48.234375 515.699219 46.953125 517.367188 45.714844 C 519.035156 44.480469 520.730469 43.28125 522.457031 42.128906 C 524.183594 40.972656 525.9375 39.863281 527.71875 38.792969 C 529.5 37.726562 531.304688 36.703125 533.132812 35.722656 C 534.964844 34.742188 536.820312 33.808594 538.695312 32.917969 C 540.570312 32.03125 542.46875 31.1875 544.386719 30.394531 C 546.304688 29.597656 548.242188 28.851562 550.195312 28.152344 C 552.148438 27.449219 554.121094 26.800781 556.105469 26.195312 C 558.09375 25.59375 560.09375 25.039062 562.105469 24.535156 C 564.121094 24.027344 566.144531 23.574219 568.179688 23.167969 C 570.214844 22.761719 572.261719 22.40625 574.316406 22.101562 C 576.367188 21.796875 578.425781 21.542969 580.492188 21.339844 C 582.558594 21.136719 584.628906 20.984375 586.703125 20.882812 C 588.773438 20.78125 590.851562 20.730469 592.925781 20.730469 C 595 20.730469 597.074219 20.78125 599.148438 20.882812 C 601.222656 20.984375 603.292969 21.136719 605.359375 21.339844 C 607.421875 21.542969 609.484375 21.796875 611.535156 22.101562 C 613.589844 22.410156 615.632812 22.761719 617.671875 23.167969 C 619.707031 23.574219 621.730469 24.03125 623.746094 24.535156 C 625.757812 25.039062 627.757812 25.59375 629.746094 26.195312 C 631.730469 26.800781 633.699219 27.453125 635.65625 28.152344 C 637.609375 28.851562 639.546875 29.597656 641.464844 30.394531 C 643.382812 31.191406 645.277344 32.03125 647.15625 32.921875 C 649.03125 33.808594 650.886719 34.742188 652.714844 35.722656 C 654.546875 36.703125 656.351562 37.726562 658.132812 38.792969 C 659.914062 39.863281 661.667969 40.972656 663.390625 42.128906 C 665.117188 43.285156 666.816406 44.480469 668.480469 45.71875 C 670.148438 46.957031 671.785156 48.234375 673.390625 49.550781 C 674.996094 50.871094 676.566406 52.226562 678.105469 53.621094 C 679.640625 55.019531 681.144531 56.449219 682.613281 57.921875 C 684.082031 59.390625 685.511719 60.894531 686.90625 62.433594 C 688.300781 63.972656 689.65625 65.546875 690.972656 67.152344 C 692.289062 68.761719 693.566406 70.398438 694.800781 72.066406 C 696.039062 73.734375 697.234375 75.433594 698.386719 77.164062 C 699.539062 78.890625 700.648438 80.644531 701.71875 82.429688 C 702.785156 84.210938 703.808594 86.019531 704.785156 87.851562 C 705.765625 89.683594 706.695312 91.539062 707.585938 93.417969 C 708.472656 95.296875 709.3125 97.195312 710.105469 99.117188 C 710.902344 101.035156 711.648438 102.972656 712.347656 104.929688 C 713.046875 106.886719 713.699219 108.859375 714.300781 110.847656 C 714.902344 112.835938 715.457031 114.839844 715.960938 116.855469 C 716.464844 118.871094 716.921875 120.898438 717.324219 122.9375 C 717.730469 124.972656 718.085938 127.019531 718.390625 129.078125 C 718.695312 131.132812 718.949219 133.195312 719.152344 135.261719 C 719.355469 137.332031 719.507812 139.402344 719.609375 141.476562 C 719.710938 143.554688 719.761719 145.628906 719.761719 147.707031 Z M 719.761719 147.707031 " fill-opacity="1" fill-rule="evenodd"/><path fill="#e0eeff" d="M 687.726562 147.707031 C 687.726562 149.261719 687.691406 150.8125 687.613281 152.367188 C 687.539062 153.917969 687.421875 155.464844 687.273438 157.011719 C 687.121094 158.558594 686.929688 160.097656 686.703125 161.632812 C 686.472656 163.171875 686.210938 164.699219 685.90625 166.222656 C 685.605469 167.746094 685.265625 169.261719 684.886719 170.769531 C 684.511719 172.277344 684.097656 173.773438 683.644531 175.257812 C 683.195312 176.746094 682.707031 178.21875 682.1875 179.683594 C 681.664062 181.144531 681.105469 182.59375 680.511719 184.027344 C 679.917969 185.464844 679.289062 186.882812 678.625 188.285156 C 677.960938 189.691406 677.265625 191.078125 676.535156 192.449219 C 675.800781 193.816406 675.039062 195.167969 674.242188 196.5 C 673.441406 197.832031 672.613281 199.144531 671.75 200.4375 C 670.890625 201.726562 669.996094 202.996094 669.070312 204.246094 C 668.148438 205.492188 667.191406 206.714844 666.207031 207.917969 C 665.222656 209.117188 664.210938 210.292969 663.167969 211.445312 C 662.128906 212.59375 661.058594 213.71875 659.960938 214.816406 C 658.863281 215.917969 657.742188 216.988281 656.589844 218.03125 C 655.441406 219.074219 654.265625 220.085938 653.066406 221.074219 C 651.867188 222.058594 650.644531 223.011719 649.398438 223.9375 C 648.152344 224.863281 646.886719 225.757812 645.59375 226.621094 C 644.304688 227.484375 642.996094 228.316406 641.664062 229.113281 C 640.332031 229.910156 638.984375 230.675781 637.613281 231.410156 C 636.246094 232.140625 634.859375 232.839844 633.457031 233.503906 C 632.054688 234.167969 630.636719 234.796875 629.203125 235.390625 C 627.769531 235.984375 626.324219 236.542969 624.863281 237.066406 C 623.402344 237.589844 621.929688 238.078125 620.445312 238.527344 C 618.960938 238.980469 617.464844 239.394531 615.960938 239.769531 C 614.457031 240.148438 612.941406 240.488281 611.421875 240.792969 C 609.898438 241.09375 608.371094 241.359375 606.835938 241.589844 C 605.300781 241.816406 603.761719 242.007812 602.21875 242.160156 C 600.671875 242.3125 599.125 242.425781 597.578125 242.5 C 596.027344 242.578125 594.476562 242.617188 592.925781 242.617188 C 591.375 242.617188 589.824219 242.578125 588.273438 242.5 C 586.722656 242.425781 585.175781 242.3125 583.632812 242.160156 C 582.089844 242.007812 580.550781 241.816406 579.015625 241.589844 C 577.480469 241.359375 575.953125 241.09375 574.429688 240.792969 C 572.910156 240.488281 571.394531 240.148438 569.890625 239.769531 C 568.386719 239.394531 566.890625 238.980469 565.40625 238.527344 C 563.921875 238.078125 562.449219 237.589844 560.988281 237.066406 C 559.527344 236.542969 558.078125 235.984375 556.644531 235.390625 C 555.210938 234.796875 553.792969 234.167969 552.390625 233.503906 C 550.988281 232.839844 549.605469 232.140625 548.234375 231.410156 C 546.867188 230.675781 545.519531 229.910156 544.1875 229.113281 C 542.855469 228.3125 541.546875 227.484375 540.253906 226.621094 C 538.964844 225.757812 537.699219 224.863281 536.453125 223.9375 C 535.207031 223.011719 533.980469 222.058594 532.78125 221.070312 C 531.582031 220.085938 530.410156 219.074219 529.257812 218.03125 C 528.109375 216.984375 526.988281 215.914062 525.890625 214.816406 C 524.792969 213.71875 523.722656 212.59375 522.679688 211.441406 C 521.640625 210.292969 520.625 209.117188 519.640625 207.914062 C 518.65625 206.714844 517.703125 205.492188 516.777344 204.242188 C 515.855469 202.996094 514.960938 201.726562 514.101562 200.433594 C 513.238281 199.144531 512.40625 197.832031 511.609375 196.5 C 510.8125 195.167969 510.046875 193.816406 509.316406 192.445312 C 508.585938 191.078125 507.886719 189.6875 507.222656 188.285156 C 506.5625 186.882812 505.933594 185.460938 505.339844 184.027344 C 504.746094 182.589844 504.1875 181.144531 503.664062 179.679688 C 503.140625 178.21875 502.65625 176.742188 502.203125 175.257812 C 501.753906 173.769531 501.339844 172.273438 500.964844 170.765625 C 500.585938 169.261719 500.246094 167.746094 499.945312 166.222656 C 499.640625 164.699219 499.375 163.167969 499.148438 161.632812 C 498.921875 160.097656 498.730469 158.554688 498.578125 157.007812 C 498.425781 155.464844 498.3125 153.914062 498.238281 152.363281 C 498.160156 150.8125 498.121094 149.257812 498.121094 147.707031 C 498.121094 146.152344 498.160156 144.601562 498.238281 143.050781 C 498.3125 141.496094 498.425781 139.949219 498.578125 138.402344 C 498.730469 136.859375 498.921875 135.316406 499.148438 133.78125 C 499.375 132.242188 499.640625 130.714844 499.945312 129.191406 C 500.246094 127.667969 500.585938 126.152344 500.964844 124.644531 C 501.339844 123.136719 501.753906 121.640625 502.203125 120.15625 C 502.65625 118.667969 503.140625 117.195312 503.664062 115.730469 C 504.1875 114.269531 504.746094 112.820312 505.339844 111.386719 C 505.933594 109.949219 506.5625 108.53125 507.226562 107.128906 C 507.886719 105.722656 508.585938 104.335938 509.316406 102.964844 C 510.046875 101.597656 510.8125 100.246094 511.609375 98.914062 C 512.40625 97.582031 513.238281 96.269531 514.101562 94.976562 C 514.960938 93.6875 515.855469 92.417969 516.777344 91.167969 C 517.703125 89.921875 518.65625 88.695312 519.640625 87.496094 C 520.625 86.296875 521.640625 85.121094 522.679688 83.96875 C 523.722656 82.816406 524.792969 81.695312 525.890625 80.59375 C 526.988281 79.496094 528.109375 78.425781 529.261719 77.382812 C 530.410156 76.339844 531.582031 75.324219 532.785156 74.339844 C 533.984375 73.355469 535.207031 72.398438 536.453125 71.472656 C 537.699219 70.550781 538.964844 69.65625 540.257812 68.792969 C 541.546875 67.929688 542.855469 67.097656 544.1875 66.300781 C 545.519531 65.5 546.867188 64.734375 548.234375 64.003906 C 549.605469 63.269531 550.988281 62.574219 552.390625 61.910156 C 553.792969 61.246094 555.210938 60.617188 556.644531 60.019531 C 558.078125 59.425781 559.527344 58.867188 560.988281 58.34375 C 562.449219 57.820312 563.921875 57.335938 565.40625 56.882812 C 566.890625 56.433594 568.386719 56.019531 569.890625 55.640625 C 571.394531 55.265625 572.910156 54.921875 574.429688 54.621094 C 575.953125 54.316406 577.480469 54.050781 579.015625 53.824219 C 580.550781 53.597656 582.089844 53.40625 583.632812 53.253906 C 585.175781 53.101562 586.722656 52.988281 588.273438 52.910156 C 589.824219 52.835938 591.375 52.796875 592.925781 52.796875 C 594.476562 52.796875 596.027344 52.835938 597.578125 52.910156 C 599.125 52.988281 600.671875 53.101562 602.21875 53.253906 C 603.761719 53.40625 605.300781 53.597656 606.835938 53.824219 C 608.371094 54.054688 609.898438 54.320312 611.421875 54.621094 C 612.941406 54.925781 614.453125 55.265625 615.960938 55.644531 C 617.464844 56.019531 618.960938 56.433594 620.445312 56.886719 C 621.929688 57.335938 623.402344 57.824219 624.863281 58.347656 C 626.324219 58.871094 627.769531 59.429688 629.203125 60.023438 C 630.636719 60.617188 632.054688 61.25 633.457031 61.914062 C 634.859375 62.578125 636.246094 63.273438 637.613281 64.007812 C 638.980469 64.738281 640.332031 65.503906 641.664062 66.304688 C 642.992188 67.101562 644.304688 67.933594 645.59375 68.796875 C 646.882812 69.660156 648.152344 70.554688 649.398438 71.476562 C 650.644531 72.402344 651.867188 73.359375 653.066406 74.34375 C 654.265625 75.328125 655.4375 76.34375 656.589844 77.386719 C 657.738281 78.429688 658.863281 79.5 659.957031 80.597656 C 661.054688 81.699219 662.125 82.820312 663.167969 83.972656 C 664.210938 85.125 665.222656 86.300781 666.207031 87.5 C 667.191406 88.699219 668.144531 89.925781 669.070312 91.171875 C 669.992188 92.421875 670.886719 93.691406 671.75 94.980469 C 672.609375 96.273438 673.441406 97.585938 674.238281 98.917969 C 675.035156 100.25 675.800781 101.601562 676.53125 102.96875 C 677.261719 104.339844 677.960938 105.726562 678.625 107.128906 C 679.289062 108.535156 679.914062 109.953125 680.507812 111.390625 C 681.101562 112.824219 681.660156 114.273438 682.183594 115.734375 C 682.707031 117.199219 683.195312 118.671875 683.644531 120.160156 C 684.09375 121.644531 684.507812 123.140625 684.886719 124.648438 C 685.261719 126.15625 685.601562 127.667969 685.90625 129.191406 C 686.207031 130.714844 686.472656 132.246094 686.699219 133.78125 C 686.929688 135.320312 687.117188 136.859375 687.269531 138.40625 C 687.421875 139.953125 687.539062 141.5 687.613281 143.050781 C 687.691406 144.601562 687.726562 146.15625 687.726562 147.707031 Z M 687.726562 147.707031 " fill-opacity="1" fill-rule="evenodd"/><path fill="#3a6584" d="M 585.3125 85.207031 C 585.308594 84.703125 585.359375 84.207031 585.453125 83.714844 C 585.550781 83.222656 585.695312 82.746094 585.886719 82.28125 C 586.078125 81.820312 586.3125 81.378906 586.589844 80.960938 C 586.867188 80.546875 587.183594 80.160156 587.535156 79.804688 C 587.890625 79.449219 588.273438 79.132812 588.691406 78.855469 C 589.109375 78.574219 589.546875 78.339844 590.007812 78.148438 C 590.472656 77.957031 590.949219 77.808594 591.441406 77.710938 C 591.929688 77.613281 592.425781 77.566406 592.925781 77.566406 C 593.429688 77.566406 593.925781 77.613281 594.414062 77.710938 C 594.90625 77.808594 595.382812 77.957031 595.84375 78.148438 C 596.308594 78.339844 596.746094 78.574219 597.164062 78.855469 C 597.578125 79.132812 597.964844 79.449219 598.320312 79.804688 C 598.671875 80.160156 598.988281 80.546875 599.265625 80.960938 C 599.542969 81.378906 599.777344 81.820312 599.96875 82.28125 C 600.160156 82.746094 600.304688 83.222656 600.398438 83.714844 C 600.496094 84.207031 600.546875 84.703125 600.542969 85.207031 L 600.542969 143.324219 L 630.820312 160.824219 C 631.25 161.074219 631.65625 161.363281 632.03125 161.695312 C 632.40625 162.023438 632.746094 162.386719 633.046875 162.785156 C 633.351562 163.179688 633.613281 163.605469 633.835938 164.050781 C 634.054688 164.5 634.230469 164.964844 634.359375 165.449219 C 634.488281 165.933594 634.566406 166.421875 634.597656 166.921875 C 634.632812 167.421875 634.613281 167.917969 634.550781 168.414062 C 634.484375 168.910156 634.371094 169.394531 634.210938 169.867188 C 634.046875 170.339844 633.84375 170.792969 633.59375 171.226562 C 633.34375 171.660156 633.054688 172.0625 632.722656 172.4375 C 632.394531 172.8125 632.03125 173.152344 631.632812 173.457031 C 631.238281 173.761719 630.816406 174.023438 630.367188 174.246094 C 629.917969 174.464844 629.453125 174.640625 628.972656 174.769531 C 628.488281 174.898438 628 174.980469 627.5 175.011719 C 627.003906 175.042969 626.507812 175.027344 626.011719 174.960938 C 625.515625 174.894531 625.03125 174.78125 624.558594 174.621094 C 624.085938 174.460938 623.632812 174.253906 623.203125 174.003906 L 589.597656 154.558594 C 588.953125 154.246094 588.367188 153.851562 587.835938 153.375 C 587.304688 152.894531 586.851562 152.355469 586.472656 151.75 C 586.09375 151.140625 585.804688 150.496094 585.609375 149.808594 C 585.410156 149.121094 585.3125 148.421875 585.3125 147.707031 Z M 585.3125 85.207031 " fill-opacity="1" fill-rule="nonzero"/><path fill="#f7e8d7" d="M 329.144531 205.609375 L 532.714844 205.609375 C 545.972656 264.375 528.429688 317.894531 483.878906 362.402344 C 528.429688 406.910156 545.976562 460.425781 532.714844 519.164062 L 329.144531 519.164062 C 315.886719 460.425781 333.398438 406.902344 377.949219 362.402344 C 333.398438 317.898438 315.886719 264.375 329.144531 205.609375 Z M 329.144531 205.609375 " fill-opacity="1" fill-rule="evenodd"/><path fill="#ffba57" d="M 365.800781 297.894531 C 378.71875 324.777344 397.773438 341.9375 418.242188 362.402344 C 380.382812 400.210938 349.523438 431.628906 353.59375 490.707031 L 508.234375 490.707031 C 512.304688 431.628906 481.445312 400.210938 443.617188 362.402344 C 464.085938 341.9375 483.140625 324.777344 496.058594 297.894531 Z M 365.800781 297.894531 " fill-opacity="1" fill-rule="evenodd"/><g clip-path="url(#1dbd4e2e02)"><path fill="#e2aa73" d="M 313.207031 519.164062 L 548.652344 519.164062 C 549.371094 519.164062 550.082031 519.203125 550.796875 519.277344 C 551.507812 519.347656 552.214844 519.457031 552.917969 519.597656 C 553.617188 519.742188 554.3125 519.917969 554.996094 520.125 C 555.679688 520.335938 556.351562 520.578125 557.011719 520.855469 C 557.671875 521.132812 558.320312 521.4375 558.949219 521.777344 C 559.578125 522.117188 560.191406 522.484375 560.785156 522.882812 C 561.382812 523.285156 561.953125 523.710938 562.507812 524.164062 C 563.058594 524.621094 563.589844 525.101562 564.09375 525.609375 C 564.601562 526.117188 565.082031 526.648438 565.535156 527.199219 C 565.988281 527.753906 566.414062 528.328125 566.8125 528.925781 C 567.210938 529.519531 567.578125 530.136719 567.914062 530.765625 C 568.253906 531.398438 568.558594 532.046875 568.832031 532.707031 C 569.109375 533.367188 569.351562 534.042969 569.558594 534.726562 C 569.765625 535.414062 569.941406 536.105469 570.082031 536.808594 C 570.222656 537.511719 570.332031 538.21875 570.402344 538.933594 C 570.472656 539.644531 570.511719 540.359375 570.511719 541.078125 C 570.511719 541.792969 570.472656 542.507812 570.402344 543.21875 C 570.328125 543.933594 570.222656 544.640625 570.082031 545.339844 C 569.941406 546.042969 569.765625 546.738281 569.558594 547.421875 C 569.347656 548.105469 569.105469 548.78125 568.832031 549.441406 C 568.558594 550.101562 568.25 550.75 567.914062 551.378906 C 567.574219 552.011719 567.207031 552.625 566.808594 553.21875 C 566.410156 553.816406 565.984375 554.390625 565.53125 554.941406 C 565.078125 555.496094 564.597656 556.027344 564.09375 556.53125 C 563.585938 557.039062 563.058594 557.519531 562.503906 557.972656 C 561.953125 558.429688 561.378906 558.855469 560.785156 559.253906 C 560.1875 559.652344 559.578125 560.019531 558.945312 560.359375 C 558.316406 560.695312 557.667969 561.003906 557.007812 561.277344 C 556.347656 561.550781 555.675781 561.792969 554.992188 562.003906 C 554.308594 562.210938 553.617188 562.386719 552.914062 562.527344 C 552.214844 562.671875 551.507812 562.777344 550.792969 562.847656 C 550.082031 562.921875 549.371094 562.957031 548.652344 562.960938 L 313.207031 562.960938 C 312.488281 562.957031 311.777344 562.921875 311.0625 562.847656 C 310.351562 562.777344 309.644531 562.671875 308.941406 562.53125 C 308.242188 562.390625 307.546875 562.214844 306.863281 562.003906 C 306.179688 561.796875 305.503906 561.554688 304.84375 561.277344 C 304.183594 561.003906 303.539062 560.699219 302.90625 560.359375 C 302.277344 560.023438 301.664062 559.652344 301.066406 559.253906 C 300.472656 558.855469 299.898438 558.429688 299.34375 557.976562 C 298.792969 557.523438 298.261719 557.042969 297.753906 556.535156 C 297.25 556.027344 296.769531 555.5 296.3125 554.945312 C 295.859375 554.390625 295.433594 553.816406 295.035156 553.222656 C 294.636719 552.628906 294.265625 552.015625 293.925781 551.382812 C 293.589844 550.753906 293.28125 550.105469 293.007812 549.445312 C 292.730469 548.78125 292.488281 548.109375 292.277344 547.425781 C 292.070312 546.738281 291.894531 546.046875 291.75 545.34375 C 291.609375 544.640625 291.503906 543.933594 291.429688 543.222656 C 291.355469 542.507812 291.320312 541.792969 291.316406 541.078125 C 291.320312 540.359375 291.355469 539.644531 291.429688 538.929688 C 291.5 538.21875 291.609375 537.511719 291.75 536.808594 C 291.890625 536.105469 292.066406 535.410156 292.277344 534.726562 C 292.488281 534.039062 292.730469 533.367188 293.003906 532.703125 C 293.28125 532.042969 293.585938 531.394531 293.925781 530.761719 C 294.265625 530.132812 294.632812 529.519531 295.03125 528.921875 C 295.429688 528.328125 295.855469 527.75 296.308594 527.199219 C 296.765625 526.644531 297.246094 526.113281 297.75 525.605469 C 298.257812 525.097656 298.789062 524.617188 299.339844 524.164062 C 299.894531 523.707031 300.46875 523.28125 301.0625 522.882812 C 301.660156 522.484375 302.273438 522.113281 302.902344 521.777344 C 303.535156 521.4375 304.179688 521.128906 304.839844 520.855469 C 305.503906 520.578125 306.175781 520.335938 306.859375 520.125 C 307.546875 519.914062 308.238281 519.738281 308.941406 519.597656 C 309.644531 519.457031 310.351562 519.347656 311.0625 519.277344 C 311.773438 519.203125 312.488281 519.164062 313.207031 519.164062 Z M 313.207031 519.164062 " fill-opacity="1" fill-rule="evenodd"/></g><g clip-path="url(#c04d6ea1ff)"><path fill="#e2aa73" d="M 313.207031 161.8125 L 548.652344 161.8125 C 549.371094 161.816406 550.082031 161.851562 550.796875 161.925781 C 551.507812 162 552.214844 162.105469 552.917969 162.246094 C 553.617188 162.390625 554.3125 162.566406 554.996094 162.777344 C 555.679688 162.984375 556.351562 163.226562 557.011719 163.503906 C 557.671875 163.78125 558.320312 164.085938 558.949219 164.425781 C 559.578125 164.765625 560.191406 165.132812 560.785156 165.535156 C 561.382812 165.933594 561.953125 166.359375 562.507812 166.816406 C 563.058594 167.269531 563.589844 167.75 564.09375 168.257812 C 564.601562 168.765625 565.082031 169.296875 565.535156 169.847656 C 565.988281 170.402344 566.414062 170.976562 566.8125 171.574219 C 567.210938 172.167969 567.578125 172.785156 567.914062 173.414062 C 568.253906 174.046875 568.558594 174.695312 568.832031 175.355469 C 569.109375 176.015625 569.351562 176.691406 569.558594 177.375 C 569.765625 178.0625 569.941406 178.753906 570.082031 179.457031 C 570.222656 180.160156 570.332031 180.867188 570.402344 181.582031 C 570.472656 182.292969 570.511719 183.007812 570.511719 183.726562 C 570.511719 184.441406 570.472656 185.15625 570.402344 185.867188 C 570.328125 186.582031 570.222656 187.289062 570.082031 187.992188 C 569.941406 188.691406 569.765625 189.386719 569.558594 190.070312 C 569.347656 190.753906 569.105469 191.429688 568.832031 192.089844 C 568.558594 192.75 568.25 193.398438 567.914062 194.027344 C 567.574219 194.660156 567.207031 195.273438 566.808594 195.867188 C 566.410156 196.464844 565.984375 197.039062 565.53125 197.589844 C 565.078125 198.144531 564.597656 198.675781 564.09375 199.179688 C 563.585938 199.6875 563.058594 200.167969 562.503906 200.621094 C 561.953125 201.078125 561.378906 201.503906 560.785156 201.902344 C 560.1875 202.300781 559.578125 202.667969 558.945312 203.007812 C 558.316406 203.34375 557.667969 203.652344 557.007812 203.925781 C 556.347656 204.199219 555.675781 204.441406 554.992188 204.652344 C 554.308594 204.863281 553.617188 205.035156 552.914062 205.175781 C 552.214844 205.320312 551.507812 205.425781 550.792969 205.496094 C 550.082031 205.570312 549.371094 205.605469 548.652344 205.609375 L 313.207031 205.609375 C 312.488281 205.605469 311.777344 205.570312 311.0625 205.496094 C 310.351562 205.425781 309.644531 205.320312 308.941406 205.179688 C 308.242188 205.039062 307.546875 204.863281 306.863281 204.652344 C 306.179688 204.445312 305.503906 204.203125 304.84375 203.929688 C 304.183594 203.652344 303.539062 203.347656 302.90625 203.007812 C 302.277344 202.671875 301.664062 202.300781 301.066406 201.902344 C 300.472656 201.503906 299.898438 201.078125 299.34375 200.625 C 298.792969 200.171875 298.261719 199.691406 297.753906 199.183594 C 297.25 198.675781 296.769531 198.148438 296.3125 197.59375 C 295.859375 197.042969 295.433594 196.46875 295.035156 195.871094 C 294.636719 195.277344 294.265625 194.664062 293.925781 194.03125 C 293.589844 193.402344 293.28125 192.753906 293.007812 192.09375 C 292.730469 191.433594 292.488281 190.757812 292.277344 190.074219 C 292.070312 189.386719 291.894531 188.695312 291.75 187.992188 C 291.609375 187.289062 291.503906 186.582031 291.429688 185.871094 C 291.355469 185.15625 291.320312 184.441406 291.316406 183.726562 C 291.320312 183.007812 291.355469 182.292969 291.429688 181.582031 C 291.5 180.867188 291.609375 180.160156 291.75 179.457031 C 291.890625 178.753906 292.066406 178.058594 292.277344 177.375 C 292.488281 176.6875 292.730469 176.015625 293.003906 175.351562 C 293.28125 174.691406 293.585938 174.042969 293.925781 173.410156 C 294.265625 172.78125 294.632812 172.167969 295.03125 171.570312 C 295.429688 170.976562 295.855469 170.398438 296.308594 169.847656 C 296.765625 169.292969 297.246094 168.761719 297.75 168.253906 C 298.257812 167.746094 298.789062 167.265625 299.339844 166.8125 C 299.894531 166.355469 300.46875 165.929688 301.0625 165.53125 C 301.660156 165.132812 302.273438 164.761719 302.902344 164.425781 C 303.535156 164.085938 304.179688 163.777344 304.839844 163.503906 C 305.503906 163.226562 306.175781 162.984375 306.859375 162.773438 C 307.546875 162.5625 308.238281 162.386719 308.941406 162.246094 C 309.644531 162.105469 310.351562 161.996094 311.0625 161.925781 C 311.773438 161.851562 312.488281 161.816406 313.207031 161.8125 Z M 313.207031 161.8125 " fill-opacity="1" fill-rule="evenodd"/></g><path fill="#b78a5e" d="M 499.449219 163.726562 C 501.332031 177.632812 501.925781 191.59375 501.238281 205.609375 L 548.652344 205.609375 C 549.367188 205.601562 550.078125 205.5625 550.789062 205.488281 C 551.496094 205.414062 552.199219 205.304688 552.898438 205.160156 C 553.597656 205.019531 554.289062 204.839844 554.96875 204.628906 C 555.652344 204.417969 556.320312 204.175781 556.976562 203.898438 C 557.636719 203.621094 558.277344 203.3125 558.90625 202.972656 C 559.53125 202.632812 560.140625 202.265625 560.734375 201.863281 C 561.324219 201.464844 561.894531 201.039062 562.445312 200.582031 C 562.992188 200.128906 563.519531 199.648438 564.023438 199.140625 C 564.523438 198.632812 565 198.105469 565.453125 197.550781 C 565.902344 196.996094 566.324219 196.421875 566.71875 195.828125 C 567.113281 195.234375 567.480469 194.621094 567.816406 193.992188 C 568.148438 193.359375 568.453125 192.714844 568.726562 192.054688 C 568.996094 191.394531 569.234375 190.722656 569.441406 190.039062 C 569.648438 189.355469 569.820312 188.664062 569.957031 187.964844 C 570.097656 187.261719 570.203125 186.558594 570.269531 185.847656 C 570.339844 185.136719 570.375 184.425781 570.375 183.710938 C 570.375 182.996094 570.339844 182.285156 570.269531 181.574219 C 570.203125 180.863281 570.097656 180.15625 569.957031 179.457031 C 569.820312 178.757812 569.648438 178.0625 569.441406 177.378906 C 569.234375 176.695312 568.996094 176.023438 568.726562 175.363281 C 568.453125 174.703125 568.148438 174.058594 567.816406 173.429688 C 567.480469 172.800781 567.113281 172.1875 566.71875 171.589844 C 566.324219 170.996094 565.902344 170.421875 565.453125 169.871094 C 565 169.316406 564.523438 168.785156 564.023438 168.28125 C 563.519531 167.773438 562.992188 167.292969 562.445312 166.835938 C 561.894531 166.382812 561.324219 165.953125 560.734375 165.554688 C 560.140625 165.15625 559.53125 164.785156 558.90625 164.445312 C 558.277344 164.105469 557.636719 163.800781 556.976562 163.523438 C 556.320312 163.246094 555.652344 163 554.96875 162.789062 C 554.289062 162.578125 553.597656 162.402344 552.898438 162.257812 C 552.199219 162.113281 551.496094 162.003906 550.789062 161.929688 C 550.078125 161.855469 549.367188 161.816406 548.652344 161.8125 L 499.203125 161.8125 C 499.292969 162.460938 499.386719 163.078125 499.449219 163.726562 Z M 499.449219 163.726562 " fill-opacity="1" fill-rule="evenodd"/><path fill="#ded1c2" d="M 517.792969 205.609375 L 501.238281 205.609375 C 500.777344 214.527344 499.769531 223.386719 498.214844 232.183594 C 496.167969 243.679688 493.21875 254.9375 489.363281 265.960938 C 485.511719 276.984375 480.804688 287.628906 475.246094 297.894531 L 496.058594 297.894531 C 483.140625 324.777344 464.085938 341.9375 443.617188 362.402344 C 481.445312 400.210938 512.304688 431.628906 508.234375 490.707031 L 497.878906 490.707031 C 499.636719 500.117188 500.757812 509.601562 501.238281 519.164062 L 532.714844 519.164062 C 545.972656 460.425781 528.429688 406.902344 483.878906 362.402344 C 513.941406 332.371094 531.695312 298.265625 535.984375 261.226562 C 537.4375 248.636719 537.375 236.054688 535.796875 223.480469 C 535.074219 217.46875 534.046875 211.511719 532.714844 205.609375 Z M 517.792969 205.609375 " fill-opacity="1" fill-rule="evenodd"/><path fill="#eb9c2c" d="M 508.234375 490.707031 C 512.304688 431.628906 481.445312 400.210938 443.617188 362.402344 C 464.085938 341.9375 483.140625 324.777344 496.058594 297.894531 L 475.246094 297.894531 C 463.101562 320.609375 446.792969 342.152344 426.535156 362.402344 C 464.980469 400.796875 489.183594 443.976562 497.878906 490.707031 Z M 508.234375 490.707031 " fill-opacity="1" fill-rule="evenodd"/><g clip-path="url(#b98868fcea)"><path fill="#b78a5e" d="M 532.714844 519.164062 L 501.238281 519.164062 C 501.949219 533.828125 501.273438 548.425781 499.203125 562.960938 L 548.652344 562.960938 C 549.367188 562.953125 550.078125 562.914062 550.789062 562.839844 C 551.496094 562.765625 552.203125 562.65625 552.898438 562.511719 C 553.597656 562.371094 554.289062 562.191406 554.96875 561.980469 C 555.652344 561.769531 556.320312 561.527344 556.980469 561.25 C 557.636719 560.972656 558.277344 560.664062 558.90625 560.324219 C 559.535156 559.984375 560.144531 559.617188 560.734375 559.21875 C 561.324219 558.816406 561.894531 558.390625 562.445312 557.933594 C 562.996094 557.480469 563.519531 557 564.023438 556.492188 C 564.527344 555.984375 565.003906 555.457031 565.453125 554.902344 C 565.90625 554.347656 566.328125 553.773438 566.722656 553.179688 C 567.117188 552.585938 567.480469 551.972656 567.816406 551.34375 C 568.152344 550.710938 568.453125 550.066406 568.726562 549.40625 C 569 548.746094 569.238281 548.074219 569.445312 547.390625 C 569.648438 546.707031 569.824219 546.015625 569.960938 545.316406 C 570.097656 544.613281 570.203125 543.910156 570.273438 543.199219 C 570.34375 542.488281 570.378906 541.777344 570.378906 541.0625 C 570.378906 540.347656 570.34375 539.636719 570.273438 538.925781 C 570.203125 538.214844 570.097656 537.507812 569.960938 536.808594 C 569.824219 536.105469 569.648438 535.414062 569.445312 534.730469 C 569.238281 534.046875 569 533.375 568.726562 532.714844 C 568.453125 532.054688 568.152344 531.410156 567.816406 530.78125 C 567.480469 530.148438 567.117188 529.535156 566.722656 528.941406 C 566.328125 528.347656 565.90625 527.773438 565.453125 527.21875 C 565.003906 526.667969 564.527344 526.136719 564.023438 525.628906 C 563.519531 525.125 562.996094 524.640625 562.445312 524.1875 C 561.894531 523.730469 561.324219 523.304688 560.734375 522.90625 C 560.144531 522.507812 559.535156 522.136719 558.90625 521.796875 C 558.277344 521.457031 557.636719 521.148438 556.980469 520.871094 C 556.320312 520.597656 555.652344 520.351562 554.96875 520.140625 C 554.289062 519.929688 553.597656 519.753906 552.898438 519.609375 C 552.203125 519.464844 551.496094 519.355469 550.789062 519.28125 C 550.078125 519.207031 549.367188 519.167969 548.652344 519.164062 Z M 532.714844 519.164062 " fill-opacity="1" fill-rule="evenodd"/></g><path fill="#3282e3" d="M 630.507812 60.574219 C 632.617188 61.488281 634.691406 62.476562 636.730469 63.539062 C 638.769531 64.601562 640.765625 65.738281 642.722656 66.949219 C 644.675781 68.15625 646.585938 69.4375 648.449219 70.785156 C 650.3125 72.132812 652.125 73.546875 653.882812 75.023438 C 655.644531 76.503906 657.347656 78.046875 658.996094 79.652344 C 660.644531 81.253906 662.234375 82.917969 663.761719 84.636719 C 665.289062 86.355469 666.75 88.128906 668.148438 89.953125 C 669.546875 91.78125 670.878906 93.65625 672.140625 95.578125 C 673.40625 97.5 674.59375 99.46875 675.714844 101.476562 C 676.835938 103.484375 677.878906 105.535156 678.851562 107.621094 C 679.824219 109.707031 680.714844 111.824219 681.535156 113.972656 C 682.351562 116.125 683.089844 118.304688 683.746094 120.507812 C 684.40625 122.710938 684.984375 124.9375 685.480469 127.183594 C 685.980469 129.429688 686.394531 131.691406 686.726562 133.96875 C 687.058594 136.246094 687.308594 138.53125 687.476562 140.828125 C 687.644531 143.121094 687.726562 145.421875 687.726562 147.722656 C 687.726562 150.023438 687.644531 152.320312 687.476562 154.617188 C 687.308594 156.910156 687.058594 159.195312 686.726562 161.472656 C 686.394531 163.75 685.980469 166.011719 685.480469 168.257812 C 684.984375 170.503906 684.40625 172.730469 683.746094 174.9375 C 683.089844 177.140625 682.351562 179.316406 681.535156 181.46875 C 680.714844 183.621094 679.824219 185.738281 678.851562 187.824219 C 677.878906 189.910156 676.835938 191.957031 675.714844 193.964844 C 674.59375 195.976562 673.40625 197.941406 672.140625 199.867188 C 670.878906 201.789062 669.546875 203.664062 668.148438 205.488281 C 666.75 207.316406 665.289062 209.085938 663.761719 210.808594 C 662.234375 212.527344 660.644531 214.1875 658.996094 215.792969 C 657.347656 217.394531 655.644531 218.9375 653.882812 220.417969 C 652.125 221.898438 650.3125 223.3125 648.449219 224.660156 C 646.585938 226.007812 644.675781 227.285156 642.722656 228.496094 C 640.765625 229.703125 638.769531 230.839844 636.730469 231.902344 C 634.691406 232.96875 632.617188 233.957031 630.507812 234.867188 C 626.167969 239.476562 621.507812 243.734375 616.53125 247.644531 C 611.554688 251.554688 606.316406 255.074219 600.816406 258.199219 C 595.3125 261.324219 589.609375 264.023438 583.703125 266.292969 C 577.796875 268.566406 571.757812 270.382812 565.578125 271.75 C 574.589844 273.707031 583.707031 274.683594 592.925781 274.683594 C 595.144531 274.683594 597.359375 274.621094 599.574219 274.503906 C 601.792969 274.386719 604 274.210938 606.207031 273.976562 C 608.414062 273.742188 610.613281 273.449219 612.804688 273.097656 C 614.992188 272.75 617.175781 272.34375 619.34375 271.878906 C 621.511719 271.414062 623.667969 270.894531 625.8125 270.316406 C 627.953125 269.738281 630.078125 269.105469 632.1875 268.417969 C 634.296875 267.726562 636.386719 266.984375 638.457031 266.183594 C 640.527344 265.386719 642.574219 264.53125 644.597656 263.625 C 646.625 262.71875 648.625 261.761719 650.597656 260.75 C 652.574219 259.738281 654.519531 258.675781 656.441406 257.5625 C 658.359375 256.445312 660.25 255.285156 662.105469 254.070312 C 663.964844 252.859375 665.789062 251.597656 667.582031 250.289062 C 669.375 248.980469 671.132812 247.625 672.851562 246.222656 C 674.574219 244.820312 676.257812 243.375 677.902344 241.886719 C 679.546875 240.398438 681.152344 238.863281 682.71875 237.292969 C 684.285156 235.71875 685.804688 234.101562 687.285156 232.449219 C 688.765625 230.796875 690.203125 229.105469 691.59375 227.375 C 692.988281 225.644531 694.332031 223.878906 695.632812 222.082031 C 696.933594 220.28125 698.183594 218.449219 699.386719 216.582031 C 700.589844 214.714844 701.742188 212.820312 702.847656 210.894531 C 703.953125 208.96875 705.003906 207.011719 706.003906 205.03125 C 707.007812 203.050781 707.957031 201.042969 708.851562 199.011719 C 709.75 196.980469 710.589844 194.925781 711.378906 192.851562 C 712.167969 190.773438 712.902344 188.679688 713.582031 186.566406 C 714.261719 184.449219 714.882812 182.320312 715.449219 180.171875 C 716.019531 178.027344 716.527344 175.867188 716.984375 173.691406 C 717.4375 171.515625 717.832031 169.332031 718.171875 167.136719 C 718.511719 164.945312 718.792969 162.742188 719.019531 160.53125 C 719.242188 158.324219 719.410156 156.109375 719.515625 153.890625 C 719.625 151.671875 719.675781 149.453125 719.667969 147.230469 C 719.660156 145.011719 719.59375 142.792969 719.46875 140.574219 C 719.34375 138.355469 719.160156 136.144531 718.917969 133.9375 C 718.679688 131.726562 718.378906 129.527344 718.023438 127.335938 C 717.667969 125.144531 717.257812 122.960938 716.785156 120.792969 C 716.316406 118.621094 715.789062 116.464844 715.207031 114.320312 C 714.621094 112.179688 713.984375 110.054688 713.289062 107.945312 C 712.59375 105.835938 711.84375 103.746094 711.039062 101.675781 C 710.238281 99.605469 709.378906 97.558594 708.46875 95.535156 C 707.554688 93.507812 706.59375 91.507812 705.574219 89.535156 C 704.558594 87.5625 703.492188 85.613281 702.375 83.695312 C 701.257812 81.777344 700.089844 79.890625 698.871094 78.035156 C 697.652344 76.175781 696.390625 74.355469 695.074219 72.5625 C 693.761719 70.773438 692.40625 69.019531 691 67.300781 C 689.59375 65.582031 688.144531 63.898438 686.652344 62.257812 C 685.160156 60.613281 683.625 59.011719 682.050781 57.449219 C 680.472656 55.886719 678.855469 54.367188 677.199219 52.890625 C 675.542969 51.414062 673.847656 49.980469 672.117188 48.589844 C 670.386719 47.203125 668.617188 45.863281 666.816406 44.566406 C 665.015625 43.269531 663.179688 42.023438 661.3125 40.824219 C 659.445312 39.625 657.546875 38.476562 655.621094 37.375 C 653.695312 36.277344 651.738281 35.230469 649.757812 34.230469 C 647.773438 33.234375 645.765625 32.289062 643.734375 31.398438 C 641.703125 30.507812 639.648438 29.671875 637.574219 28.886719 C 635.496094 28.105469 633.402344 27.375 631.289062 26.703125 C 629.175781 26.027344 627.042969 25.410156 624.898438 24.851562 C 622.75 24.289062 620.589844 23.785156 618.417969 23.335938 C 616.246094 22.886719 614.0625 22.496094 611.871094 22.164062 C 609.675781 21.832031 607.476562 21.554688 605.269531 21.335938 C 603.058594 21.117188 600.847656 20.960938 598.632812 20.859375 C 596.417969 20.757812 594.199219 20.710938 591.980469 20.726562 C 589.761719 20.742188 587.546875 20.816406 585.332031 20.945312 C 583.117188 21.078125 580.90625 21.265625 578.703125 21.515625 C 576.496094 21.761719 574.300781 22.066406 572.113281 22.429688 C 569.925781 22.792969 567.746094 23.210938 565.578125 23.691406 C 571.757812 25.050781 577.800781 26.863281 583.710938 29.132812 C 589.617188 31.402344 595.320312 34.097656 600.824219 37.226562 C 606.328125 40.351562 611.566406 43.871094 616.542969 47.785156 C 621.515625 51.699219 626.171875 55.960938 630.507812 60.574219 Z M 630.507812 60.574219 " fill-opacity="1" fill-rule="evenodd"/><path fill="#cad6e6" d="M 687.726562 147.707031 C 687.730469 145.40625 687.644531 143.109375 687.480469 140.816406 C 687.3125 138.519531 687.0625 136.234375 686.730469 133.957031 C 686.394531 131.679688 685.980469 129.417969 685.484375 127.171875 C 684.988281 124.925781 684.410156 122.699219 683.75 120.496094 C 683.089844 118.292969 682.351562 116.113281 681.535156 113.964844 C 680.71875 111.8125 679.824219 109.695312 678.855469 107.609375 C 677.882812 105.523438 676.835938 103.476562 675.71875 101.46875 C 674.597656 99.457031 673.40625 97.492188 672.144531 95.570312 C 670.882812 93.648438 669.550781 91.773438 668.152344 89.945312 C 666.753906 88.121094 665.289062 86.347656 663.761719 84.628906 C 662.234375 82.910156 660.648438 81.25 659 79.644531 C 657.351562 78.042969 655.644531 76.5 653.886719 75.019531 C 652.125 73.542969 650.3125 72.128906 648.449219 70.78125 C 646.585938 69.433594 644.679688 68.15625 642.722656 66.945312 C 640.765625 65.738281 638.769531 64.601562 636.730469 63.539062 C 634.691406 62.476562 632.617188 61.488281 630.507812 60.578125 C 631.878906 62.03125 633.21875 63.519531 634.519531 65.039062 C 635.820312 66.558594 637.085938 68.105469 638.316406 69.683594 C 639.542969 71.265625 640.734375 72.871094 641.886719 74.507812 C 643.039062 76.140625 644.152344 77.800781 645.226562 79.492188 C 646.300781 81.179688 647.335938 82.890625 648.328125 84.628906 C 649.324219 86.363281 650.273438 88.125 651.1875 89.90625 C 652.097656 91.6875 652.964844 93.488281 653.789062 95.3125 C 654.613281 97.136719 655.394531 98.976562 656.132812 100.835938 C 656.871094 102.695312 657.566406 104.574219 658.214844 106.464844 C 658.867188 108.359375 659.46875 110.265625 660.03125 112.1875 C 660.589844 114.109375 661.101562 116.042969 661.570312 117.988281 C 662.039062 119.933594 662.460938 121.890625 662.835938 123.855469 C 663.214844 125.820312 663.542969 127.792969 663.824219 129.773438 C 664.109375 131.757812 664.34375 133.742188 664.53125 135.734375 C 664.722656 137.726562 664.863281 139.722656 664.957031 141.722656 C 665.050781 143.722656 665.097656 145.722656 665.097656 147.722656 C 665.097656 149.726562 665.050781 151.726562 664.957031 153.722656 C 664.863281 155.722656 664.722656 157.71875 664.53125 159.710938 C 664.34375 161.703125 664.109375 163.691406 663.824219 165.671875 C 663.542969 167.652344 663.214844 169.628906 662.835938 171.59375 C 662.460938 173.558594 662.039062 175.515625 661.570312 177.460938 C 661.101562 179.40625 660.589844 181.339844 660.03125 183.261719 C 659.46875 185.183594 658.867188 187.089844 658.214844 188.980469 C 657.566406 190.875 656.871094 192.75 656.132812 194.609375 C 655.394531 196.472656 654.613281 198.3125 653.789062 200.136719 C 652.964844 201.957031 652.097656 203.761719 651.1875 205.542969 C 650.273438 207.324219 649.324219 209.082031 648.328125 210.820312 C 647.335938 212.558594 646.300781 214.269531 645.226562 215.957031 C 644.152344 217.644531 643.039062 219.304688 641.886719 220.941406 C 640.734375 222.578125 639.542969 224.183594 638.316406 225.761719 C 637.085938 227.339844 635.820312 228.890625 634.519531 230.410156 C 633.21875 231.925781 631.878906 233.414062 630.507812 234.871094 C 632.617188 233.957031 634.691406 232.96875 636.730469 231.90625 C 638.769531 230.839844 640.765625 229.703125 642.722656 228.496094 C 644.679688 227.285156 646.589844 226.007812 648.449219 224.660156 C 650.3125 223.3125 652.125 221.898438 653.886719 220.417969 C 655.644531 218.9375 657.351562 217.394531 659 215.789062 C 660.648438 214.1875 662.234375 212.523438 663.761719 210.804688 C 665.289062 209.085938 666.753906 207.3125 668.152344 205.484375 C 669.550781 203.660156 670.882812 201.785156 672.144531 199.859375 C 673.40625 197.9375 674.597656 195.972656 675.71875 193.960938 C 676.835938 191.953125 677.882812 189.902344 678.855469 187.816406 C 679.824219 185.730469 680.71875 183.613281 681.535156 181.460938 C 682.351562 179.3125 683.089844 177.132812 683.75 174.929688 C 684.410156 172.722656 684.988281 170.496094 685.484375 168.25 C 685.980469 166.003906 686.394531 163.742188 686.730469 161.464844 C 687.0625 159.1875 687.3125 156.902344 687.476562 154.605469 C 687.644531 152.308594 687.726562 150.011719 687.726562 147.710938 Z M 687.726562 147.707031 " fill-opacity="1" fill-rule="evenodd"/></svg>