<svg width="20" height="20" viewBox="0 0 20 20" fill="none" xmlns="http://www.w3.org/2000/svg">
<path d="M15.9915 13.9249C16.4242 13.4084 16.6629 12.7571 16.6665 12.0833C16.6665 11.3097 16.3592 10.5679 15.8122 10.0209C15.2653 9.4739 14.5234 9.16661 13.7498 9.16661H13.5165C14.2037 8.34993 14.5814 7.3173 14.5832 6.24994C14.5851 5.4804 14.3933 4.72275 14.0253 4.04688C13.6574 3.371 13.1251 2.79865 12.4778 2.3826C11.8304 1.96656 11.0887 1.72022 10.321 1.6663C9.55335 1.61237 8.78447 1.75261 8.08529 2.07407C7.3861 2.39552 6.7791 2.88785 6.32028 3.50566C5.86145 4.12346 5.56557 4.84685 5.45992 5.60911C5.35427 6.37137 5.44224 7.14796 5.71574 7.86726C5.98923 8.58657 6.43944 9.22543 7.02484 9.72494C5.45006 10.3268 4.09486 11.3921 3.13819 12.7803C2.18151 14.1684 1.66837 15.8141 1.6665 17.4999C1.6665 17.721 1.7543 17.9329 1.91058 18.0892C2.06686 18.2455 2.27882 18.3333 2.49984 18.3333C2.72085 18.3333 2.93281 18.2455 3.08909 18.0892C3.24537 17.9329 3.33317 17.721 3.33317 17.4999C3.33317 15.7318 4.03555 14.0361 5.28579 12.7859C6.53604 11.5357 8.23173 10.8333 9.99984 10.8333H11.1248C10.8807 11.33 10.787 11.8871 10.8551 12.4363C10.9232 12.9855 11.1502 13.5029 11.5082 13.9249C10.7982 14.322 10.207 14.9012 9.7954 15.6029C9.3838 16.3045 9.16671 17.1032 9.1665 17.9166C9.1665 18.1376 9.2543 18.3496 9.41058 18.5059C9.56686 18.6621 9.77882 18.7499 9.99984 18.7499C10.2209 18.7499 10.4328 18.6621 10.5891 18.5059C10.7454 18.3496 10.8332 18.1376 10.8332 17.9166C10.8332 17.1431 11.1405 16.4012 11.6874 15.8542C12.2344 15.3072 12.9763 14.9999 13.7498 14.9999C14.5234 14.9999 15.2653 15.3072 15.8122 15.8542C16.3592 16.4012 16.6665 17.1431 16.6665 17.9166C16.6665 18.1376 16.7543 18.3496 16.9106 18.5059C17.0669 18.6621 17.2788 18.7499 17.4998 18.7499C17.7209 18.7499 17.9328 18.6621 18.0891 18.5059C18.2454 18.3496 18.3332 18.1376 18.3332 17.9166C18.333 17.1032 18.1159 16.3045 17.7043 15.6029C17.2927 14.9012 16.7014 14.322 15.9915 13.9249ZM9.99984 9.16661C9.42298 9.16661 8.85907 8.99555 8.37942 8.67506C7.89978 8.35457 7.52594 7.89905 7.30519 7.3661C7.08443 6.83315 7.02667 6.24671 7.13921 5.68093C7.25175 5.11515 7.52954 4.59545 7.93744 4.18755C8.34535 3.77964 8.86505 3.50186 9.43082 3.38932C9.9966 3.27678 10.583 3.33454 11.116 3.55529C11.6489 3.77605 12.1045 4.14989 12.425 4.62953C12.7454 5.10917 12.9165 5.67308 12.9165 6.24994C12.9165 7.02349 12.6092 7.76536 12.0622 8.31234C11.5153 8.85932 10.7734 9.16661 9.99984 9.16661ZM13.7498 13.3333C13.4183 13.3333 13.1004 13.2016 12.866 12.9672C12.6315 12.7327 12.4998 12.4148 12.4998 12.0833C12.502 11.7524 12.6344 11.4358 12.8684 11.2018C13.1023 10.9679 13.419 10.8355 13.7498 10.8333C14.0814 10.8333 14.3993 10.965 14.6337 11.1994C14.8681 11.4338 14.9998 11.7518 14.9998 12.0833C14.9998 12.4148 14.8681 12.7327 14.6337 12.9672C14.3993 13.2016 14.0814 13.3333 13.7498 13.3333Z" fill="#464255"/>
</svg>
