<svg width="27" height="27" viewBox="0 0 27 27" fill="none" xmlns="http://www.w3.org/2000/svg">
<path d="M18.9844 23.2031H8.4375C8.38209 23.2031 8.32723 23.1922 8.27604 23.171C8.22485 23.1498 8.17833 23.1188 8.13916 23.0796C8.09998 23.0404 8.06891 22.9939 8.04771 22.9427C8.02651 22.8915 8.01561 22.8367 8.01563 22.7812V6.75C8.01561 6.69459 8.02651 6.63973 8.04771 6.58854C8.06891 6.53735 8.09998 6.49083 8.13916 6.45166C8.17833 6.41248 8.22485 6.38141 8.27604 6.36021C8.32723 6.33901 8.38209 6.32811 8.4375 6.32813H18.9844C19.4318 6.3286 19.8607 6.50654 20.1771 6.82291C20.4935 7.13927 20.6714 7.56822 20.6719 8.01562V21.5156C20.6714 21.963 20.4935 22.392 20.1771 22.7083C19.8607 23.0247 19.4318 23.2026 18.9844 23.2031ZM8.85938 22.3594H18.9844C19.2081 22.3591 19.4225 22.2701 19.5807 22.112C19.7389 21.9538 19.8279 21.7393 19.8281 21.5156V8.01562C19.8279 7.79193 19.7389 7.57746 19.5807 7.41929C19.4225 7.26111 19.2081 7.17213 18.9844 7.17188H8.85938V22.3594Z" fill="#464255" stroke="#464255"/>
<path d="M6.4126 6.71917C6.31372 6.71908 6.21802 6.68429 6.14217 6.62085C6.06633 6.55741 6.01517 6.46936 5.99761 6.37205C5.98005 6.27475 5.99721 6.17437 6.0461 6.08842C6.09499 6.00248 6.1725 5.93642 6.26511 5.90179L12.5969 3.53802C12.8516 3.44746 13.1242 3.41936 13.3919 3.4561C13.6597 3.49283 13.9147 3.59333 14.1355 3.74913C14.3563 3.90494 14.5364 4.11149 14.6608 4.35142C14.7852 4.59134 14.8501 4.85763 14.8501 5.12787V6.29709C14.8501 6.40898 14.8057 6.51628 14.7265 6.5954C14.6474 6.67452 14.5401 6.71896 14.4282 6.71896C14.3163 6.71896 14.209 6.67452 14.1299 6.5954C14.0508 6.51628 14.0063 6.40898 14.0063 6.29709V5.12787C14.0063 4.99311 13.974 4.86032 13.9121 4.7406C13.8502 4.62089 13.7606 4.51773 13.6507 4.43976C13.5408 4.36179 13.4138 4.31127 13.2803 4.29244C13.1469 4.2736 13.0109 4.287 12.8837 4.3315L6.56009 6.69238C6.51292 6.71005 6.46297 6.71913 6.4126 6.71917ZM7.25635 11.3596H4.93604C4.54434 11.3591 4.1687 11.2039 3.89082 10.9278C3.68465 10.7211 3.54434 10.4578 3.48762 10.1714C3.4309 9.88495 3.46031 9.58813 3.57213 9.31839C3.68395 9.04864 3.87317 8.81807 4.11591 8.65577C4.35865 8.49347 4.64404 8.40672 4.93604 8.40646H5.99072C6.10261 8.40646 6.20992 8.45091 6.28903 8.53003C6.36815 8.60914 6.4126 8.71645 6.4126 8.82834C6.4126 8.94023 6.36815 9.04753 6.28903 9.12665C6.20992 9.20577 6.10261 9.25021 5.99072 9.25021H4.93604C4.7682 9.25021 4.60725 9.31688 4.48857 9.43556C4.3699 9.55423 4.30322 9.71519 4.30322 9.88303C4.30322 10.0509 4.3699 10.2118 4.48857 10.3305C4.60725 10.4492 4.7682 10.5158 4.93604 10.5158H7.25635C7.36824 10.5158 7.47554 10.5603 7.55466 10.6394C7.63378 10.7185 7.67822 10.8258 7.67822 10.9377C7.67822 11.0496 7.63378 11.1569 7.55466 11.236C7.47554 11.3151 7.36824 11.3596 7.25635 11.3596ZM7.25635 15.5783H4.93604C4.54434 15.5778 4.1687 15.4226 3.89082 15.1466C3.68465 14.9398 3.54434 14.6766 3.48762 14.3901C3.4309 14.1037 3.46031 13.8069 3.57213 13.5371C3.68395 13.2674 3.87317 13.0368 4.11591 12.8745C4.35865 12.7122 4.64404 12.6255 4.93604 12.6252H5.99072C6.10261 12.6252 6.20992 12.6697 6.28903 12.7488C6.36815 12.8279 6.4126 12.9352 6.4126 13.0471C6.4126 13.159 6.36815 13.2663 6.28903 13.3454C6.20992 13.4245 6.10261 13.469 5.99072 13.469H4.93604C4.7682 13.469 4.60725 13.5356 4.48857 13.6543C4.3699 13.773 4.30322 13.9339 4.30322 14.1018C4.30322 14.2696 4.3699 14.4306 4.48857 14.5492C4.60725 14.6679 4.7682 14.7346 4.93604 14.7346H7.25635C7.36824 14.7346 7.47554 14.779 7.55466 14.8582C7.63378 14.9373 7.67822 15.0446 7.67822 15.1565C7.67822 15.2684 7.63378 15.3757 7.55466 15.4548C7.47554 15.5339 7.36824 15.5783 7.25635 15.5783ZM7.25635 19.7971H4.93604C4.54434 19.7966 4.1687 19.6414 3.89082 19.3653C3.68465 19.1586 3.54434 18.8953 3.48762 18.6089C3.4309 18.3225 3.46031 18.0256 3.57213 17.7559C3.68395 17.4861 3.87317 17.2556 4.11591 17.0933C4.35865 16.931 4.64404 16.8442 4.93604 16.844H5.99072C6.10261 16.844 6.20992 16.8884 6.28903 16.9675C6.36815 17.0466 6.4126 17.1539 6.4126 17.2658C6.4126 17.3777 6.36815 17.485 6.28903 17.5641C6.20992 17.6433 6.10261 17.6877 5.99072 17.6877H4.93604C4.7682 17.6877 4.60725 17.7544 4.48857 17.8731C4.3699 17.9917 4.30322 18.1527 4.30322 18.3205C4.30322 18.4884 4.3699 18.6493 4.48857 18.768C4.60725 18.8867 4.7682 18.9533 4.93604 18.9533H7.25635C7.36824 18.9533 7.47554 18.9978 7.55466 19.0769C7.63378 19.156 7.67822 19.2633 7.67822 19.3752C7.67822 19.4871 7.63378 19.5944 7.55466 19.6735C7.47554 19.7526 7.36824 19.7971 7.25635 19.7971ZM17.8032 13.8908H11.0532C10.9978 13.8909 10.943 13.8799 10.8918 13.8588C10.8406 13.8376 10.7941 13.8065 10.7549 13.7673C10.7157 13.7281 10.6846 13.6816 10.6634 13.6304C10.6422 13.5792 10.6313 13.5244 10.6313 13.469V12.6252C10.6313 11.6182 11.0314 10.6525 11.7434 9.94042C12.4555 9.22836 13.4212 8.82834 14.4282 8.82834C15.4352 8.82834 16.401 9.22836 17.113 9.94042C17.8251 10.6525 18.2251 11.6182 18.2251 12.6252V13.469C18.2251 13.5244 18.2142 13.5792 18.193 13.6304C18.1718 13.6816 18.1407 13.7281 18.1016 13.7673C18.0624 13.8065 18.0159 13.8376 17.9647 13.8588C17.9135 13.8799 17.8586 13.8909 17.8032 13.8908ZM11.4751 13.0471H17.3813V12.6252C17.3813 11.842 17.0702 11.0909 16.5164 10.537C15.9626 9.98322 15.2114 9.67209 14.4282 9.67209C13.645 9.67209 12.8939 9.98322 12.34 10.537C11.7862 11.0909 11.4751 11.842 11.4751 12.6252V13.0471Z" fill="#464255" stroke="#464255"/>
</svg>
