<svg width="24" height="20" viewBox="0 0 24 20" fill="none" xmlns="http://www.w3.org/2000/svg">
<mask id="path-1-outside-1_1672_13603" maskUnits="userSpaceOnUse" x="-1" y="0" width="26" height="20" fill="black">
<rect fill="white" x="-1" width="26" height="20"/>
<path d="M22.875 1H1.125C0.826738 1.00035 0.540792 1.11899 0.329889 1.32989C0.118985 1.54079 0.000347365 1.82674 0 2.125L0 17.875C0.000347365 18.1733 0.118985 18.4592 0.329889 18.6701C0.540792 18.881 0.826738 18.9997 1.125 19H22.875C23.1733 18.9997 23.4592 18.881 23.6701 18.6701C23.881 18.4592 23.9997 18.1733 24 17.875V2.125C23.9997 1.82674 23.881 1.54079 23.6701 1.32989C23.4592 1.11899 23.1733 1.00035 22.875 1ZM6.9375 6.625V1.75H8.44369L8.46131 2.80206C8.46227 2.86238 8.47777 2.92157 8.50649 2.97462C8.53522 3.02766 8.57632 3.07299 8.62631 3.10675L9.90806 3.97169V4.65325C9.90804 4.70969 9.92076 4.76541 9.94527 4.81625C9.96978 4.86709 10.0055 4.91174 10.0496 4.94687L10.6871 5.4535V7.12994C10.6871 7.18766 10.7004 7.24462 10.726 7.29636C10.7516 7.3481 10.7888 7.39324 10.8347 7.42825L12.1903 8.46119L10.7064 10.0287C10.4192 10.15 9.52969 10.5601 9.048 11.1696C8.79488 11.2396 7.45538 11.8906 7.44863 11.8947C7.38286 11.9168 7.32456 11.9568 7.28025 12.0102L6.45656 13H4.677L4.80319 12.8264C4.84988 12.7623 4.87503 12.685 4.875 12.6057V10.75C4.875 10.6505 4.83549 10.5552 4.76516 10.4848C4.69484 10.4145 4.59946 10.375 4.5 10.375H3.94313L3.95775 9.38294L4.869 8.71412C4.91699 8.6789 4.95592 8.63276 4.98256 8.57952C5.00919 8.52628 5.02278 8.46747 5.02219 8.40794L5.01656 7.87937L6.73969 6.95556C6.79948 6.92351 6.84945 6.87584 6.88428 6.81762C6.91912 6.75941 6.93751 6.69284 6.9375 6.625ZM0.75 2.125C0.750099 2.02557 0.78964 1.93025 0.859945 1.85994C0.930249 1.78964 1.02557 1.7501 1.125 1.75H6.1875V5.97625L4.24762 5.17506C4.1833 5.14863 4.1129 5.14055 4.04426 5.1517C3.97561 5.16285 3.9114 5.19281 3.85875 5.23825L2.96681 6.0115L0.75 5.23413V2.125ZM0.75 6.02894L2.92387 6.79131C2.98625 6.81317 3.0533 6.81817 3.11823 6.80579C3.18316 6.79341 3.24367 6.76409 3.29362 6.72081L4.17525 5.95637L5.7795 6.61919L4.46212 7.32569C4.40182 7.35808 4.35153 7.40636 4.31669 7.46528C4.28186 7.52421 4.26381 7.59155 4.2645 7.66L4.27012 8.22325L3.36356 8.88888C3.31689 8.92315 3.27879 8.96776 3.25224 9.01923C3.2257 9.07069 3.21143 9.1276 3.21056 9.1855L3.19294 10.375H0.75V6.02894ZM1.125 18.25C1.02557 18.2499 0.930249 18.2104 0.859945 18.1401C0.78964 18.0697 0.750099 17.9744 0.75 17.875V11.125H4.125V12.4838L3.63713 13.1543C3.5964 13.2103 3.57195 13.2764 3.56648 13.3454C3.56102 13.4144 3.57475 13.4835 3.60615 13.5452C3.63756 13.6068 3.68541 13.6586 3.74442 13.6948C3.80343 13.7309 3.8713 13.75 3.9405 13.75H5.91994L5.68931 14.1582C5.65824 14.2133 5.64159 14.2753 5.64094 14.3386L5.625 15.8086C5.62435 15.8711 5.63938 15.9329 5.66873 15.9882C5.69807 16.0435 5.7408 16.0905 5.793 16.1251L6.73575 16.7496L6.747 18.25H1.125ZM15.6054 17.0828C15.5776 17.1362 15.563 17.1955 15.5631 17.2557V18.25H7.49719L7.48425 16.5441C7.48377 16.4827 7.46819 16.4224 7.4389 16.3684C7.4096 16.3144 7.36748 16.2684 7.31625 16.2346L6.37725 15.6126L6.38981 14.443L6.72394 13.8514L7.64288 12.7471L8.7945 13.5012C8.85555 13.5412 8.92699 13.5625 9 13.5625H10.8337L12.1881 13.8632V15.0625C12.1881 15.162 12.2276 15.2573 12.2979 15.3277C12.3682 15.398 12.4636 15.4375 12.5631 15.4375H14.2736V15.8125C14.2736 15.912 14.3131 16.0073 14.3835 16.0777C14.4538 16.148 14.5492 16.1875 14.6486 16.1875H16.0706L15.6054 17.0828ZM23.25 10.75H20.4206C20.3253 10.75 20.2336 10.7863 20.1641 10.8514L19.6642 11.3202L18.7868 12.8125H19.0208C19.116 12.8125 19.2077 12.7762 19.2772 12.7111L20.5691 11.5H23.25V17.875C23.2499 17.9744 23.2103 18.0697 23.14 18.14C23.0697 18.2103 22.9744 18.2499 22.875 18.25H19.1978L20.1896 16.7301C20.235 16.6607 20.256 16.5783 20.2495 16.4956C20.243 16.413 20.2093 16.3348 20.1536 16.2734L18.1716 14.0864L18.1012 13.3371C17.8481 13.405 17.5791 13.3811 17.3419 13.2696L17.4366 14.2806C17.4441 14.3613 17.4776 14.4373 17.532 14.4974L19.4034 16.5625L18.4359 18.0451C18.3962 18.106 18.3751 18.1772 18.3754 18.25H16.3129V17.3474L17.0207 15.9854C17.0504 15.9282 17.0648 15.8644 17.0627 15.8C17.0606 15.7357 17.0419 15.6729 17.0085 15.6179C16.975 15.5628 16.928 15.5173 16.8719 15.4857C16.8158 15.4541 16.7525 15.4375 16.6881 15.4375H15.0236V15.0625C15.0236 14.963 14.9841 14.8677 14.9138 14.7973C14.8435 14.727 14.7481 14.6875 14.6486 14.6875H12.9381V13.5625C12.938 13.4772 12.9089 13.3944 12.8556 13.3279C12.8022 13.2614 12.7277 13.215 12.6444 13.1965L10.9564 12.8215C10.9297 12.8155 10.9024 12.8125 10.875 12.8125H9.11194L8.31787 12.2926C8.62055 12.1278 8.93808 11.992 9.26625 11.8868C9.29793 11.8864 9.32943 11.882 9.36 11.8737C9.36487 11.8737 9.36956 11.875 9.37463 11.875H13.0787C13.1296 11.875 13.1801 11.8646 13.2269 11.8444C13.2737 11.8243 13.3159 11.7948 13.3509 11.7578L15.0157 10H15.1845L14.7321 9.23031L14.6758 9.27437C14.6612 9.28585 14.6474 9.29838 14.6346 9.31188L12.9174 11.125H10.2354C10.4972 10.9568 10.7735 10.8125 11.061 10.6937C11.112 10.6736 11.1579 10.6426 11.1956 10.6028L13.0219 8.67381C13.058 8.63559 13.0858 8.59018 13.1032 8.54054C13.1207 8.49089 13.1275 8.43813 13.1233 8.38567C13.119 8.33322 13.1038 8.28225 13.0785 8.23608C13.0533 8.18991 13.0186 8.14957 12.9767 8.11769L11.4371 6.94431V5.27256C11.4371 5.21614 11.4243 5.16045 11.3998 5.10964C11.3752 5.05883 11.3396 5.01422 11.2954 4.97913L10.6579 4.4725V3.77219C10.6579 3.71082 10.6429 3.65039 10.6141 3.59619C10.5853 3.54199 10.5437 3.49568 10.4929 3.46131L9.20794 2.59431L9.19388 1.75H22.875C22.9744 1.75015 23.0697 1.78971 23.14 1.86C23.2103 1.93029 23.2499 2.02559 23.25 2.125V10.75Z"/>
</mask>
<path d="M22.875 1H1.125C0.826738 1.00035 0.540792 1.11899 0.329889 1.32989C0.118985 1.54079 0.000347365 1.82674 0 2.125L0 17.875C0.000347365 18.1733 0.118985 18.4592 0.329889 18.6701C0.540792 18.881 0.826738 18.9997 1.125 19H22.875C23.1733 18.9997 23.4592 18.881 23.6701 18.6701C23.881 18.4592 23.9997 18.1733 24 17.875V2.125C23.9997 1.82674 23.881 1.54079 23.6701 1.32989C23.4592 1.11899 23.1733 1.00035 22.875 1ZM6.9375 6.625V1.75H8.44369L8.46131 2.80206C8.46227 2.86238 8.47777 2.92157 8.50649 2.97462C8.53522 3.02766 8.57632 3.07299 8.62631 3.10675L9.90806 3.97169V4.65325C9.90804 4.70969 9.92076 4.76541 9.94527 4.81625C9.96978 4.86709 10.0055 4.91174 10.0496 4.94687L10.6871 5.4535V7.12994C10.6871 7.18766 10.7004 7.24462 10.726 7.29636C10.7516 7.3481 10.7888 7.39324 10.8347 7.42825L12.1903 8.46119L10.7064 10.0287C10.4192 10.15 9.52969 10.5601 9.048 11.1696C8.79488 11.2396 7.45538 11.8906 7.44863 11.8947C7.38286 11.9168 7.32456 11.9568 7.28025 12.0102L6.45656 13H4.677L4.80319 12.8264C4.84988 12.7623 4.87503 12.685 4.875 12.6057V10.75C4.875 10.6505 4.83549 10.5552 4.76516 10.4848C4.69484 10.4145 4.59946 10.375 4.5 10.375H3.94313L3.95775 9.38294L4.869 8.71412C4.91699 8.6789 4.95592 8.63276 4.98256 8.57952C5.00919 8.52628 5.02278 8.46747 5.02219 8.40794L5.01656 7.87937L6.73969 6.95556C6.79948 6.92351 6.84945 6.87584 6.88428 6.81762C6.91912 6.75941 6.93751 6.69284 6.9375 6.625ZM0.75 2.125C0.750099 2.02557 0.78964 1.93025 0.859945 1.85994C0.930249 1.78964 1.02557 1.7501 1.125 1.75H6.1875V5.97625L4.24762 5.17506C4.1833 5.14863 4.1129 5.14055 4.04426 5.1517C3.97561 5.16285 3.9114 5.19281 3.85875 5.23825L2.96681 6.0115L0.75 5.23413V2.125ZM0.75 6.02894L2.92387 6.79131C2.98625 6.81317 3.0533 6.81817 3.11823 6.80579C3.18316 6.79341 3.24367 6.76409 3.29362 6.72081L4.17525 5.95637L5.7795 6.61919L4.46212 7.32569C4.40182 7.35808 4.35153 7.40636 4.31669 7.46528C4.28186 7.52421 4.26381 7.59155 4.2645 7.66L4.27012 8.22325L3.36356 8.88888C3.31689 8.92315 3.27879 8.96776 3.25224 9.01923C3.2257 9.07069 3.21143 9.1276 3.21056 9.1855L3.19294 10.375H0.75V6.02894ZM1.125 18.25C1.02557 18.2499 0.930249 18.2104 0.859945 18.1401C0.78964 18.0697 0.750099 17.9744 0.75 17.875V11.125H4.125V12.4838L3.63713 13.1543C3.5964 13.2103 3.57195 13.2764 3.56648 13.3454C3.56102 13.4144 3.57475 13.4835 3.60615 13.5452C3.63756 13.6068 3.68541 13.6586 3.74442 13.6948C3.80343 13.7309 3.8713 13.75 3.9405 13.75H5.91994L5.68931 14.1582C5.65824 14.2133 5.64159 14.2753 5.64094 14.3386L5.625 15.8086C5.62435 15.8711 5.63938 15.9329 5.66873 15.9882C5.69807 16.0435 5.7408 16.0905 5.793 16.1251L6.73575 16.7496L6.747 18.25H1.125ZM15.6054 17.0828C15.5776 17.1362 15.563 17.1955 15.5631 17.2557V18.25H7.49719L7.48425 16.5441C7.48377 16.4827 7.46819 16.4224 7.4389 16.3684C7.4096 16.3144 7.36748 16.2684 7.31625 16.2346L6.37725 15.6126L6.38981 14.443L6.72394 13.8514L7.64288 12.7471L8.7945 13.5012C8.85555 13.5412 8.92699 13.5625 9 13.5625H10.8337L12.1881 13.8632V15.0625C12.1881 15.162 12.2276 15.2573 12.2979 15.3277C12.3682 15.398 12.4636 15.4375 12.5631 15.4375H14.2736V15.8125C14.2736 15.912 14.3131 16.0073 14.3835 16.0777C14.4538 16.148 14.5492 16.1875 14.6486 16.1875H16.0706L15.6054 17.0828ZM23.25 10.75H20.4206C20.3253 10.75 20.2336 10.7863 20.1641 10.8514L19.6642 11.3202L18.7868 12.8125H19.0208C19.116 12.8125 19.2077 12.7762 19.2772 12.7111L20.5691 11.5H23.25V17.875C23.2499 17.9744 23.2103 18.0697 23.14 18.14C23.0697 18.2103 22.9744 18.2499 22.875 18.25H19.1978L20.1896 16.7301C20.235 16.6607 20.256 16.5783 20.2495 16.4956C20.243 16.413 20.2093 16.3348 20.1536 16.2734L18.1716 14.0864L18.1012 13.3371C17.8481 13.405 17.5791 13.3811 17.3419 13.2696L17.4366 14.2806C17.4441 14.3613 17.4776 14.4373 17.532 14.4974L19.4034 16.5625L18.4359 18.0451C18.3962 18.106 18.3751 18.1772 18.3754 18.25H16.3129V17.3474L17.0207 15.9854C17.0504 15.9282 17.0648 15.8644 17.0627 15.8C17.0606 15.7357 17.0419 15.6729 17.0085 15.6179C16.975 15.5628 16.928 15.5173 16.8719 15.4857C16.8158 15.4541 16.7525 15.4375 16.6881 15.4375H15.0236V15.0625C15.0236 14.963 14.9841 14.8677 14.9138 14.7973C14.8435 14.727 14.7481 14.6875 14.6486 14.6875H12.9381V13.5625C12.938 13.4772 12.9089 13.3944 12.8556 13.3279C12.8022 13.2614 12.7277 13.215 12.6444 13.1965L10.9564 12.8215C10.9297 12.8155 10.9024 12.8125 10.875 12.8125H9.11194L8.31787 12.2926C8.62055 12.1278 8.93808 11.992 9.26625 11.8868C9.29793 11.8864 9.32943 11.882 9.36 11.8737C9.36487 11.8737 9.36956 11.875 9.37463 11.875H13.0787C13.1296 11.875 13.1801 11.8646 13.2269 11.8444C13.2737 11.8243 13.3159 11.7948 13.3509 11.7578L15.0157 10H15.1845L14.7321 9.23031L14.6758 9.27437C14.6612 9.28585 14.6474 9.29838 14.6346 9.31188L12.9174 11.125H10.2354C10.4972 10.9568 10.7735 10.8125 11.061 10.6937C11.112 10.6736 11.1579 10.6426 11.1956 10.6028L13.0219 8.67381C13.058 8.63559 13.0858 8.59018 13.1032 8.54054C13.1207 8.49089 13.1275 8.43813 13.1233 8.38567C13.119 8.33322 13.1038 8.28225 13.0785 8.23608C13.0533 8.18991 13.0186 8.14957 12.9767 8.11769L11.4371 6.94431V5.27256C11.4371 5.21614 11.4243 5.16045 11.3998 5.10964C11.3752 5.05883 11.3396 5.01422 11.2954 4.97913L10.6579 4.4725V3.77219C10.6579 3.71082 10.6429 3.65039 10.6141 3.59619C10.5853 3.54199 10.5437 3.49568 10.4929 3.46131L9.20794 2.59431L9.19388 1.75H22.875C22.9744 1.75015 23.0697 1.78971 23.14 1.86C23.2103 1.93029 23.2499 2.02559 23.25 2.125V10.75Z" fill="white"/>
<path d="M22.875 1H1.125C0.826738 1.00035 0.540792 1.11899 0.329889 1.32989C0.118985 1.54079 0.000347365 1.82674 0 2.125L0 17.875C0.000347365 18.1733 0.118985 18.4592 0.329889 18.6701C0.540792 18.881 0.826738 18.9997 1.125 19H22.875C23.1733 18.9997 23.4592 18.881 23.6701 18.6701C23.881 18.4592 23.9997 18.1733 24 17.875V2.125C23.9997 1.82674 23.881 1.54079 23.6701 1.32989C23.4592 1.11899 23.1733 1.00035 22.875 1ZM6.9375 6.625V1.75H8.44369L8.46131 2.80206C8.46227 2.86238 8.47777 2.92157 8.50649 2.97462C8.53522 3.02766 8.57632 3.07299 8.62631 3.10675L9.90806 3.97169V4.65325C9.90804 4.70969 9.92076 4.76541 9.94527 4.81625C9.96978 4.86709 10.0055 4.91174 10.0496 4.94687L10.6871 5.4535V7.12994C10.6871 7.18766 10.7004 7.24462 10.726 7.29636C10.7516 7.3481 10.7888 7.39324 10.8347 7.42825L12.1903 8.46119L10.7064 10.0287C10.4192 10.15 9.52969 10.5601 9.048 11.1696C8.79488 11.2396 7.45538 11.8906 7.44863 11.8947C7.38286 11.9168 7.32456 11.9568 7.28025 12.0102L6.45656 13H4.677L4.80319 12.8264C4.84988 12.7623 4.87503 12.685 4.875 12.6057V10.75C4.875 10.6505 4.83549 10.5552 4.76516 10.4848C4.69484 10.4145 4.59946 10.375 4.5 10.375H3.94313L3.95775 9.38294L4.869 8.71412C4.91699 8.6789 4.95592 8.63276 4.98256 8.57952C5.00919 8.52628 5.02278 8.46747 5.02219 8.40794L5.01656 7.87937L6.73969 6.95556C6.79948 6.92351 6.84945 6.87584 6.88428 6.81762C6.91912 6.75941 6.93751 6.69284 6.9375 6.625ZM0.75 2.125C0.750099 2.02557 0.78964 1.93025 0.859945 1.85994C0.930249 1.78964 1.02557 1.7501 1.125 1.75H6.1875V5.97625L4.24762 5.17506C4.1833 5.14863 4.1129 5.14055 4.04426 5.1517C3.97561 5.16285 3.9114 5.19281 3.85875 5.23825L2.96681 6.0115L0.75 5.23413V2.125ZM0.75 6.02894L2.92387 6.79131C2.98625 6.81317 3.0533 6.81817 3.11823 6.80579C3.18316 6.79341 3.24367 6.76409 3.29362 6.72081L4.17525 5.95637L5.7795 6.61919L4.46212 7.32569C4.40182 7.35808 4.35153 7.40636 4.31669 7.46528C4.28186 7.52421 4.26381 7.59155 4.2645 7.66L4.27012 8.22325L3.36356 8.88888C3.31689 8.92315 3.27879 8.96776 3.25224 9.01923C3.2257 9.07069 3.21143 9.1276 3.21056 9.1855L3.19294 10.375H0.75V6.02894ZM1.125 18.25C1.02557 18.2499 0.930249 18.2104 0.859945 18.1401C0.78964 18.0697 0.750099 17.9744 0.75 17.875V11.125H4.125V12.4838L3.63713 13.1543C3.5964 13.2103 3.57195 13.2764 3.56648 13.3454C3.56102 13.4144 3.57475 13.4835 3.60615 13.5452C3.63756 13.6068 3.68541 13.6586 3.74442 13.6948C3.80343 13.7309 3.8713 13.75 3.9405 13.75H5.91994L5.68931 14.1582C5.65824 14.2133 5.64159 14.2753 5.64094 14.3386L5.625 15.8086C5.62435 15.8711 5.63938 15.9329 5.66873 15.9882C5.69807 16.0435 5.7408 16.0905 5.793 16.1251L6.73575 16.7496L6.747 18.25H1.125ZM15.6054 17.0828C15.5776 17.1362 15.563 17.1955 15.5631 17.2557V18.25H7.49719L7.48425 16.5441C7.48377 16.4827 7.46819 16.4224 7.4389 16.3684C7.4096 16.3144 7.36748 16.2684 7.31625 16.2346L6.37725 15.6126L6.38981 14.443L6.72394 13.8514L7.64288 12.7471L8.7945 13.5012C8.85555 13.5412 8.92699 13.5625 9 13.5625H10.8337L12.1881 13.8632V15.0625C12.1881 15.162 12.2276 15.2573 12.2979 15.3277C12.3682 15.398 12.4636 15.4375 12.5631 15.4375H14.2736V15.8125C14.2736 15.912 14.3131 16.0073 14.3835 16.0777C14.4538 16.148 14.5492 16.1875 14.6486 16.1875H16.0706L15.6054 17.0828ZM23.25 10.75H20.4206C20.3253 10.75 20.2336 10.7863 20.1641 10.8514L19.6642 11.3202L18.7868 12.8125H19.0208C19.116 12.8125 19.2077 12.7762 19.2772 12.7111L20.5691 11.5H23.25V17.875C23.2499 17.9744 23.2103 18.0697 23.14 18.14C23.0697 18.2103 22.9744 18.2499 22.875 18.25H19.1978L20.1896 16.7301C20.235 16.6607 20.256 16.5783 20.2495 16.4956C20.243 16.413 20.2093 16.3348 20.1536 16.2734L18.1716 14.0864L18.1012 13.3371C17.8481 13.405 17.5791 13.3811 17.3419 13.2696L17.4366 14.2806C17.4441 14.3613 17.4776 14.4373 17.532 14.4974L19.4034 16.5625L18.4359 18.0451C18.3962 18.106 18.3751 18.1772 18.3754 18.25H16.3129V17.3474L17.0207 15.9854C17.0504 15.9282 17.0648 15.8644 17.0627 15.8C17.0606 15.7357 17.0419 15.6729 17.0085 15.6179C16.975 15.5628 16.928 15.5173 16.8719 15.4857C16.8158 15.4541 16.7525 15.4375 16.6881 15.4375H15.0236V15.0625C15.0236 14.963 14.9841 14.8677 14.9138 14.7973C14.8435 14.727 14.7481 14.6875 14.6486 14.6875H12.9381V13.5625C12.938 13.4772 12.9089 13.3944 12.8556 13.3279C12.8022 13.2614 12.7277 13.215 12.6444 13.1965L10.9564 12.8215C10.9297 12.8155 10.9024 12.8125 10.875 12.8125H9.11194L8.31787 12.2926C8.62055 12.1278 8.93808 11.992 9.26625 11.8868C9.29793 11.8864 9.32943 11.882 9.36 11.8737C9.36487 11.8737 9.36956 11.875 9.37463 11.875H13.0787C13.1296 11.875 13.1801 11.8646 13.2269 11.8444C13.2737 11.8243 13.3159 11.7948 13.3509 11.7578L15.0157 10H15.1845L14.7321 9.23031L14.6758 9.27437C14.6612 9.28585 14.6474 9.29838 14.6346 9.31188L12.9174 11.125H10.2354C10.4972 10.9568 10.7735 10.8125 11.061 10.6937C11.112 10.6736 11.1579 10.6426 11.1956 10.6028L13.0219 8.67381C13.058 8.63559 13.0858 8.59018 13.1032 8.54054C13.1207 8.49089 13.1275 8.43813 13.1233 8.38567C13.119 8.33322 13.1038 8.28225 13.0785 8.23608C13.0533 8.18991 13.0186 8.14957 12.9767 8.11769L11.4371 6.94431V5.27256C11.4371 5.21614 11.4243 5.16045 11.3998 5.10964C11.3752 5.05883 11.3396 5.01422 11.2954 4.97913L10.6579 4.4725V3.77219C10.6579 3.71082 10.6429 3.65039 10.6141 3.59619C10.5853 3.54199 10.5437 3.49568 10.4929 3.46131L9.20794 2.59431L9.19388 1.75H22.875C22.9744 1.75015 23.0697 1.78971 23.14 1.86C23.2103 1.93029 23.2499 2.02559 23.25 2.125V10.75Z" stroke="white" stroke-width="0.24" mask="url(#path-1-outside-1_1672_13603)"/>
<path d="M17.8125 2.44001C17.1804 2.43458 16.5581 2.59599 16.0084 2.90794C15.4586 3.21994 15.0008 3.67148 14.6813 4.21696C14.3593 4.75599 14.1892 5.37219 14.1893 6.0001C14.1893 6.62803 14.3594 7.24423 14.6815 7.78323C14.6816 7.78329 14.6816 7.78336 14.6817 7.78342L17.4377 12.4705L17.4377 12.4706C17.4761 12.5358 17.5309 12.5899 17.5967 12.6275C17.6624 12.6651 17.7368 12.6849 17.8126 12.6849C17.8883 12.6849 17.9627 12.6651 18.0285 12.6275C18.0942 12.5899 18.149 12.5358 18.1874 12.4706L18.1874 12.4705L20.9435 7.78342C20.9435 7.78335 20.9436 7.78328 20.9436 7.78322C21.2657 7.24418 21.4357 6.62797 21.4357 6.00005C21.4356 5.37214 21.2655 4.75597 20.9434 4.21698C20.624 3.67149 20.1663 3.21994 19.6165 2.90794C19.0668 2.59598 18.4445 2.43457 17.8125 2.44001ZM17.8125 2.44001C17.8123 2.44001 17.8121 2.44001 17.8119 2.44002L17.8125 2.50001L17.813 2.44002C17.8128 2.44001 17.8126 2.44001 17.8125 2.44001ZM20.194 7.34161L20.1937 7.34198L17.8125 11.3918L15.4314 7.34198L15.4312 7.34161C15.1888 6.93608 15.0609 6.47249 15.0609 6.00008C15.0609 5.52769 15.1888 5.06413 15.4311 4.65863C15.6778 4.24734 16.0268 3.90696 16.4441 3.67063C16.8615 3.43431 17.3329 3.31009 17.8125 3.31009C18.2921 3.31009 18.7635 3.43431 19.1808 3.67063C19.5981 3.90695 19.9471 4.24731 20.1938 4.65858C20.4361 5.06409 20.5641 5.52767 20.5641 6.00008C20.5641 6.47251 20.4363 6.9361 20.194 7.34161Z" fill="white" stroke="white" stroke-width="0.12"/>
<path d="M17.8126 4.315H17.8125C17.4669 4.315 17.129 4.41749 16.8416 4.60951C16.5543 4.80152 16.3303 5.07445 16.198 5.39376C16.0658 5.71307 16.0312 6.06444 16.0986 6.40342C16.166 6.7424 16.3324 7.05378 16.5768 7.29817C16.8212 7.54256 17.1326 7.70899 17.4716 7.77642C17.8106 7.84385 18.1619 7.80924 18.4812 7.67698C18.8006 7.54471 19.0735 7.32073 19.2655 7.03336C19.4575 6.74598 19.56 6.40812 19.56 6.0625V6.06243C19.5595 5.59914 19.3752 5.15497 19.0476 4.82738C18.72 4.49978 18.2759 4.31551 17.8126 4.315ZM17.8124 6.94C17.6389 6.93999 17.4693 6.88852 17.325 6.79211C17.1807 6.69569 17.0682 6.55865 17.0018 6.3983C16.9354 6.23796 16.918 6.06153 16.9519 5.89131C16.9857 5.72109 17.0693 5.56473 17.192 5.44201C17.3147 5.31929 17.4711 5.23572 17.6413 5.20186C17.8115 5.168 17.988 5.18538 18.1483 5.2518C18.3086 5.31821 18.4457 5.43068 18.5421 5.57499C18.6385 5.71927 18.69 5.8889 18.69 6.06243C18.6897 6.29509 18.5972 6.51814 18.4327 6.68266C18.2681 6.84717 18.0451 6.93972 17.8124 6.94Z" fill="white" stroke="white" stroke-width="0.12"/>
</svg>
