<svg width="22" height="28" viewBox="0 0 29 35" fill="none" xmlns="http://www.w3.org/2000/svg">
<path d="M8.71875 19.2344H12.1875C12.1866 19.5407 12.0645 19.8343 11.8478 20.051C11.6312 20.2676 11.3376 20.3897 11.0312 20.3906H9.875C9.56862 20.3897 9.27506 20.2676 9.05842 20.051C8.84178 19.8343 8.71967 19.5407 8.71875 19.2344ZM28.375 14.0312C28.375 24.6075 15.3961 34.3223 14.8434 34.7304C14.744 34.8039 14.6236 34.8435 14.5 34.8435C14.3764 34.8435 14.256 34.8039 14.1566 34.7304C13.6039 34.3223 0.625 24.6075 0.625 14.0312C0.625 10.3514 2.08683 6.82221 4.68889 4.22014C7.29096 1.61808 10.8201 0.15625 14.5 0.15625C18.1799 0.15625 21.709 1.61808 24.3111 4.22014C26.9132 6.82221 28.375 10.3514 28.375 14.0312ZM24.9062 14.0312C24.9062 11.9731 24.2959 9.96115 23.1525 8.24985C22.009 6.53855 20.3838 5.20475 18.4823 4.41713C16.5808 3.6295 14.4885 3.42343 12.4698 3.82495C10.4512 4.22648 8.59701 5.21758 7.14167 6.67292C5.68633 8.12826 4.69523 9.98248 4.2937 12.0011C3.89218 14.0197 4.09825 16.1121 4.88588 18.0135C5.6735 19.915 7.0073 21.5403 8.7186 22.6837C10.4299 23.8272 12.4418 24.4375 14.5 24.4375C17.259 24.4344 19.9041 23.3371 21.8549 21.3862C23.8058 19.4353 24.9032 16.7902 24.9062 14.0312ZM17.9688 20.3906H19.125C19.4314 20.3897 19.7249 20.2676 19.9416 20.051C20.1582 19.8343 20.2803 19.5407 20.2812 19.2344H16.8125C16.8134 19.5407 16.9355 19.8343 17.1522 20.051C17.3688 20.2676 17.6624 20.3897 17.9688 20.3906ZM21.4375 14.0312V17.5C21.437 17.6532 21.376 17.8 21.2677 17.9083C21.1593 18.0166 21.0126 18.0777 20.8594 18.0781H8.14062C7.98744 18.0777 7.84066 18.0166 7.73233 17.9083C7.62401 17.8 7.56296 17.6532 7.5625 17.5V14.0312C7.56458 13.6546 7.6891 13.2889 7.91729 12.9893C8.14547 12.6897 8.46493 12.4724 8.82744 12.3703L9.67323 8.98537C9.76662 8.60997 9.98303 8.27665 10.288 8.03858C10.5929 7.80051 10.9687 7.67141 11.3556 7.67187H17.645C18.0318 7.67141 18.4077 7.80051 18.7126 8.03858C19.0175 8.27665 19.234 8.60997 19.3273 8.98537L20.1731 12.3703C20.5355 12.4725 20.8549 12.6898 21.0829 12.9894C21.311 13.2891 21.4355 13.6547 21.4375 14.0312ZM10.0369 12.2969H18.9631L18.2058 9.26634C18.1745 9.14102 18.1022 9.02978 18.0004 8.95036C17.8985 8.87093 17.773 8.8279 17.6438 8.82812H11.3556C11.2266 8.82816 11.1014 8.87131 10.9998 8.95072C10.8982 9.03012 10.826 9.14122 10.7948 9.26634L10.0369 12.2969ZM12.1875 15.1875C12.187 15.0343 12.126 14.8875 12.0177 14.7792C11.9093 14.6709 11.7626 14.6098 11.6094 14.6094H10.4531C10.2998 14.6094 10.1527 14.6703 10.0443 14.7787C9.93591 14.8871 9.875 15.0342 9.875 15.1875C9.875 15.3408 9.93591 15.4879 10.0443 15.5963C10.1527 15.7047 10.2998 15.7656 10.4531 15.7656H11.6094C11.7626 15.7652 11.9093 15.7041 12.0177 15.5958C12.126 15.4875 12.187 15.3407 12.1875 15.1875ZM19.125 15.1875C19.1245 15.0343 19.0635 14.8875 18.9552 14.7792C18.8468 14.6709 18.7001 14.6098 18.5469 14.6094H17.3906C17.2373 14.6094 17.0902 14.6703 16.9818 14.7787C16.8734 14.8871 16.8125 15.0342 16.8125 15.1875C16.8125 15.3408 16.8734 15.4879 16.9818 15.5963C17.0902 15.7047 17.2373 15.7656 17.3906 15.7656H18.5469C18.7001 15.7652 18.8468 15.7041 18.9552 15.5958C19.0635 15.4875 19.1245 15.3407 19.125 15.1875Z" fill="#D61125"/>
</svg>
