<svg width="64" height="64" viewBox="0 0 64 64" fill="none" xmlns="http://www.w3.org/2000/svg">
<rect width="64" height="64" rx="18.75" fill="#DFDAB0"/>
<path d="M41.2416 22.8067C39.0375 22.8067 35.0523 22.7865 32.8482 22.8201C32.2638 22.8201 32.0158 22.6776 31.9625 22.0606C31.7328 19.2118 31.4781 16.3657 31.1984 13.5225C31.1551 13.0698 31.3199 13.0112 31.6878 13.0112C34.4447 13.0112 38.9793 12.9877 41.7361 13.0112C42.8098 13.0195 43.6389 13.5795 44.1633 14.5049C45.6099 17.0598 47.0133 19.6382 48.4516 22.1981C48.7846 22.7966 48.42 22.7648 48.0238 22.7648H41.2416V22.8067Z" fill="#7C9F37"/>
<path d="M19.3281 22.8117C17.1089 22.8117 14.8913 22.8 12.6738 22.8201C12.0942 22.8201 11.8363 22.7799 12.2031 22.1186C13.5832 19.6859 14.9265 17.2315 16.2731 14.7804C16.923 13.5984 17.9229 13.0292 19.2578 13.0258C21.8371 13.0175 25.3037 13.0258 27.883 13.0007C28.3855 13.0007 28.5781 13.0978 28.5262 13.6403C28.2571 16.482 28.0058 19.3237 27.7725 22.1655C27.7306 22.6677 27.5229 22.8067 27.0372 22.8017C24.7643 22.7782 21.6009 22.7916 19.3281 22.7916V22.8117Z" fill="#7C9F37"/>
<path d="M45.3334 37.0007C41.6576 37.0007 38.6667 39.9915 38.6667 43.6674C38.6667 47.3433 41.6576 50.3341 45.3334 50.3341C49.0093 50.3341 52.0001 47.3433 52.0001 43.6674C52.0001 39.9915 49.0093 37.0007 45.3334 37.0007ZM49.0594 41.913L44.7987 46.1402C44.5481 46.3909 44.1471 46.4076 43.8798 46.157L41.6241 44.1018C41.3568 43.8512 41.3401 43.4335 41.574 43.1661C41.8246 42.8988 42.2424 42.8821 42.5097 43.1327L44.2975 44.7702L48.107 40.9606C48.3743 40.6933 48.7921 40.6933 49.0594 40.9606C49.3267 41.228 49.3267 41.6457 49.0594 41.913Z" fill="#302916"/>
<path d="M49.3333 34.0497C49.3333 35.4463 47.722 36.3627 46.3377 36.1782C46.0091 36.1344 45.6739 36.1118 45.3333 36.1118C41.1605 36.1118 37.7778 39.4946 37.7778 43.6674C37.7778 44.008 37.8004 44.3432 37.8442 44.6718C38.0287 46.0561 37.1123 47.6674 35.7157 47.6674H13.7778C12.7959 47.6674 12 46.8714 12 45.8896V26.3341C12 25.3522 12.7959 24.5563 13.7778 24.5563H47.5556C48.5374 24.5563 49.3333 25.3522 49.3333 26.3341V34.0497Z" fill="#7C9F37"/>
</svg>
