<svg width="64" height="64" viewBox="0 0 64 64" fill="none" xmlns="http://www.w3.org/2000/svg">
<rect width="64" height="63.9935" rx="18" fill="#DFDAB0"/>
<path d="M44.3689 37.529L44.4239 37.5617L44.3781 37.5211L44.3689 37.529Z" fill="#FD7389"/>
<path d="M43.9744 36.9987C43.1678 37.009 42.3979 36.7324 41.585 36.7414C37.7166 36.7594 34.3964 39.2799 33.3543 43.0665C33.2353 43.5001 33.0618 43.6313 32.6211 43.6288C29.0997 43.6082 25.5769 43.6288 22.0542 43.6133C19.8737 43.6056 18.4428 41.4067 19.1418 39.2941C19.5544 37.9844 20.0899 36.7181 20.7411 35.5126C21.5407 34.0977 22.6141 32.8622 23.8966 31.8805C25.6339 30.523 27.6144 29.7253 29.7683 29.3574C33.6164 28.6999 37.0784 29.6224 40.1516 32.0374C41.8332 33.3588 43.1602 34.9813 43.9656 37.0064L43.9744 36.9987Z" fill="#7C9F37"/>
<path d="M31.9854 27.0645C30.9615 27.0708 29.9465 26.8702 28.9995 26.4744C28.0525 26.0785 27.1925 25.4953 26.4694 24.7586C25.7462 24.0219 25.1745 23.1465 24.7874 22.1833C24.4003 21.22 24.2055 20.1882 24.2144 19.1478C24.2144 14.7063 27.6612 11.2259 32.0462 11.2388C36.3718 11.2504 39.7957 14.7629 39.7894 19.1812C39.7831 23.5995 36.3414 27.0645 31.9854 27.0645Z" fill="#7C9F37"/>
<path d="M40.5137 23.2951C40.5071 22.6157 40.6334 21.9419 40.8852 21.3125C41.137 20.6831 41.5093 20.1109 41.9805 19.6289C42.4517 19.1469 43.0124 18.7647 43.6301 18.5047C44.2477 18.2446 44.9101 18.1117 45.5787 18.1138C46.9294 18.1198 48.2235 18.6656 49.1815 19.6331C50.1394 20.6007 50.6842 21.9124 50.6982 23.2848C50.7045 26.1038 48.3746 28.4687 45.5888 28.4687C44.9201 28.4717 44.2574 28.3399 43.6393 28.0808C43.0211 27.8217 42.4596 27.4405 41.9875 26.9592C41.5154 26.478 41.1421 25.9063 40.8891 25.2773C40.6361 24.6483 40.5085 23.9746 40.5137 23.2951Z" fill="#7C9F37"/>
<path d="M23.4889 23.3333C23.4903 24.0123 23.3589 24.6848 23.1025 25.3119C22.846 25.9389 22.4696 26.508 21.995 26.9861C21.5204 27.4641 20.9571 27.8416 20.3377 28.0967C19.7184 28.3518 19.0554 28.4794 18.3871 28.4721C15.6102 28.4721 13.2892 26.0969 13.3006 23.2805C13.306 22.5962 13.4443 21.9198 13.7074 21.2898C13.9705 20.6599 14.3533 20.0889 14.8339 19.6096C15.3145 19.1302 15.8835 18.7519 16.5082 18.4962C17.1329 18.2406 17.8011 18.1127 18.4745 18.1198C21.2058 18.1391 23.4648 20.3341 23.4889 23.3333Z" fill="#7C9F37"/>
<path d="M48.999 38.1546C48.3659 38.1546 47.7264 38.1392 47.0908 38.1611C46.7806 38.1714 46.6489 38.0324 46.5374 37.7609C46.1224 36.6869 45.6227 35.6486 45.0432 34.6563C44.4515 33.6452 43.742 32.7103 42.9299 31.872C42.4335 31.3728 42.4487 31.3226 43.1236 31.0267C46.0284 29.749 49.5119 30.952 51.101 33.7556C51.6632 34.7463 52.0241 35.7744 51.9988 36.9298C51.9798 37.7326 51.6341 38.1186 50.8376 38.1456C50.2349 38.1714 49.6144 38.1546 48.999 38.1546Z" fill="#7C9F37"/>
<path d="M21.4338 31.3378C20.3689 32.5447 19.3483 33.7142 18.629 35.1205C18.215 35.8963 17.8663 36.7063 17.5869 37.542C17.4489 37.9807 17.2184 38.1853 16.717 38.1685C15.5508 38.1248 14.3833 38.1595 13.2158 38.1531C12.3294 38.1531 12.0078 37.8019 12.0002 36.8871C11.971 33.1069 15.6812 29.8852 19.3926 30.634C20.1055 30.7768 20.7779 30.9531 21.4338 31.3378Z" fill="#7C9F37"/>
<path d="M41.9986 37.5C46.1241 37.5 49.5438 40.871 49.4996 44.9742C49.4492 49.2813 46.0823 52.4902 41.8977 52.5C37.7402 52.5086 34.5086 49.1978 34.5 44.8292C34.4865 40.8157 37.8939 37.4988 41.9986 37.5ZM40.7332 48.5282C40.8632 48.5271 40.9916 48.499 41.1101 48.4457C41.2286 48.3924 41.3348 48.3151 41.4219 48.2187C43.136 46.5127 44.8461 44.8026 46.5521 43.0884C46.9062 42.731 46.9517 42.2948 46.675 41.8599C46.3209 41.2948 45.6138 41.274 45.0592 41.8219C43.7595 43.1081 42.456 44.3919 41.1845 45.7052C40.8156 46.0884 40.5697 46.1781 40.1873 45.726C39.7308 45.2072 39.2412 44.7184 38.7215 44.2629C38.3182 43.8943 37.6468 43.9312 37.3369 44.2801C36.9618 44.7002 36.968 45.1855 37.3799 45.6241C38.1472 46.4349 38.9219 47.2379 39.704 48.0332C39.9659 48.301 40.2561 48.5184 40.7332 48.5282Z" fill="#302916"/>
</svg>
