<svg width="64" height="64" viewBox="0 0 64 64" fill="none" xmlns="http://www.w3.org/2000/svg">
<rect width="64" height="64" rx="18.75" fill="#DFDAB0"/>
<path d="M41.2416 22.8069C39.0375 22.8069 35.0523 22.7868 32.8482 22.8203C32.2638 22.8203 32.0158 22.6778 31.9625 22.0609C31.7328 19.212 31.4781 16.366 31.1984 13.5227C31.1551 13.0701 31.3199 13.0114 31.6878 13.0114C34.4447 13.0114 38.9793 12.9879 41.7361 13.0114C42.8098 13.0198 43.6389 13.5797 44.1633 14.5051C45.6099 17.06 47.0133 19.6384 48.4516 22.1984C48.7846 22.7968 48.42 22.765 48.0238 22.765H41.2416V22.8069Z" fill="#7C9F37"/>
<path d="M19.3281 22.8119C17.1089 22.8119 14.8913 22.8002 12.6738 22.8203C12.0942 22.8203 11.8363 22.7801 12.2031 22.1188C13.5832 19.6862 14.9265 17.2317 16.2731 14.7807C16.923 13.5987 17.9229 13.0294 19.2578 13.0261C21.8371 13.0177 25.3037 13.0261 27.883 13.001C28.3855 13.001 28.5781 13.0981 28.5262 13.6405C28.2571 16.4823 28.0058 19.324 27.7725 22.1657C27.7306 22.668 27.5229 22.8069 27.0372 22.8019C24.7643 22.7785 21.6009 22.7919 19.3281 22.7919V22.8119Z" fill="#7C9F37"/>
<path d="M49.3333 34.05C49.3333 35.4466 47.722 36.363 46.3377 36.1785C46.0091 36.1347 45.6739 36.1121 45.3333 36.1121C41.1605 36.1121 37.7778 39.4948 37.7778 43.6676C37.7778 44.0082 37.8004 44.3434 37.8442 44.672C38.0287 46.0563 37.1123 47.6676 35.7157 47.6676H13.7778C12.7959 47.6676 12 46.8717 12 45.8899V26.3343C12 25.3525 12.7959 24.5565 13.7778 24.5565H47.5556C48.5374 24.5565 49.3333 25.3525 49.3333 26.3343V34.05Z" fill="#7C9F37"/>
<path d="M52 43.7429C51.9904 47.3975 48.9592 50.3867 45.2398 50.3359C41.6683 50.2859 38.6486 47.4503 38.6668 43.642C38.6851 39.8712 41.6145 37.0164 45.3358 37.001C49.0235 36.9857 52.0201 39.972 52 43.7429ZM44.3088 42.532C44.3088 43.0601 44.3145 43.5883 44.3088 44.1164C44.2985 44.2444 44.3193 44.373 44.3694 44.4912C44.4196 44.6094 44.4976 44.7138 44.5967 44.7953C45.3377 45.3753 46.0778 45.961 46.8255 46.5276C47.2526 46.8512 47.7287 46.7839 48.0042 46.3941C48.2624 46.0301 48.1961 45.6528 47.7757 45.3052C47.2958 44.9096 46.7967 44.537 46.2966 44.1663C45.9962 43.9445 45.8167 43.7045 45.8359 43.2916C45.8733 42.509 45.8541 41.7235 45.8436 40.939C45.8378 40.4646 45.4596 40.0527 45.068 40.0594C44.638 40.0661 44.3155 40.4358 44.3097 40.9409C44.3049 41.4719 44.3088 42 44.3088 42.5282V42.532Z" fill="#302916"/>
</svg>
