<svg width="64" height="64" viewBox="0 0 64 64" fill="none" xmlns="http://www.w3.org/2000/svg">
<rect width="64" height="63.9935" rx="18" fill="#DFDAB0"/>
<path d="M44.3689 37.529L44.4239 37.5617L44.3781 37.5211L44.3689 37.529Z" fill="#FD7389"/>
<path d="M43.9744 37.6523C43.1678 37.6626 42.3979 37.3871 41.585 37.396C37.7166 37.414 34.3964 39.924 33.3543 43.6947C33.2353 44.1265 33.0618 44.2572 32.6211 44.2546C29.0997 44.2341 25.5769 44.2546 22.0542 44.2393C19.8737 44.2316 18.4428 42.0419 19.1418 39.9381C19.5544 38.6339 20.0899 37.3729 20.7411 36.1724C21.5407 34.7635 22.6141 33.533 23.8966 32.5554C25.6339 31.2037 27.6144 30.4093 29.7683 30.0429C33.6164 29.3882 37.0784 30.3068 40.1516 32.7118C41.8332 34.0276 43.1602 35.6433 43.9656 37.66L43.9744 37.6523Z" fill="#7C9F37"/>
<path d="M31.9854 27.7595C30.9615 27.7659 29.9465 27.5661 28.9995 27.1719C28.0525 26.7777 27.1925 26.1969 26.4694 25.4633C25.7462 24.7297 25.1745 23.858 24.7874 22.8988C24.4003 21.9395 24.2055 20.912 24.2144 19.8759C24.2144 15.453 27.6612 11.9872 32.0462 12C36.3718 12.0116 39.7957 15.5094 39.7894 19.9093C39.7831 24.3091 36.3414 27.7595 31.9854 27.7595Z" fill="#7C9F37"/>
<path d="M40.5137 24.0062C40.5071 23.3297 40.6334 22.6586 40.8852 22.0319C41.137 21.4052 41.5093 20.8353 41.9805 20.3553C42.4517 19.8753 43.0124 19.4948 43.6301 19.2358C44.2477 18.9768 44.9101 18.8445 45.5787 18.8466C46.9294 18.8526 48.2235 19.396 49.1815 20.3596C50.1394 21.3231 50.6842 22.6293 50.6982 23.996C50.7045 26.8032 48.3746 29.1582 45.5888 29.1582C44.9201 29.1612 44.2574 29.03 43.6393 28.7719C43.0211 28.5139 42.4596 28.1343 41.9875 27.655C41.5154 27.1758 41.1421 26.6065 40.8891 25.9801C40.6361 25.3538 40.5085 24.6828 40.5137 24.0062Z" fill="#7C9F37"/>
<path d="M23.4889 24.0441C23.4903 24.7203 23.3589 25.3901 23.1025 26.0145C22.846 26.6389 22.4696 27.2056 21.995 27.6817C21.5204 28.1577 20.9571 28.5337 20.3377 28.7877C19.7184 29.0417 19.0554 29.1688 18.3871 29.1615C15.6102 29.1615 13.2892 26.7963 13.3006 23.9916C13.306 23.3102 13.4443 22.6365 13.7074 22.0093C13.9705 21.382 14.3533 20.8134 14.8339 20.336C15.3145 19.8586 15.8835 19.4819 16.5082 19.2273C17.1329 18.9727 17.8011 18.8454 18.4745 18.8525C21.2058 18.8717 23.4648 21.0575 23.4889 24.0441Z" fill="#7C9F37"/>
<path d="M48.999 38.8025C48.3659 38.8025 47.7264 38.7871 47.0908 38.8089C46.7806 38.8192 46.6489 38.6808 46.5374 38.4105C46.1224 37.3409 45.6227 36.307 45.0432 35.3188C44.4515 34.3119 43.742 33.381 42.9299 32.5461C42.4335 32.049 42.4487 31.999 43.1236 31.7043C46.0284 30.432 49.5119 31.63 51.101 34.4219C51.6632 35.4085 52.0241 36.4322 51.9988 37.5828C51.9798 38.3823 51.6341 38.7666 50.8376 38.7936C50.2349 38.8192 49.6144 38.8025 48.999 38.8025Z" fill="#7C9F37"/>
<path d="M21.4338 32.0143C20.3689 33.2161 19.3483 34.3808 18.629 35.7812C18.215 36.5538 17.8663 37.3604 17.5869 38.1926C17.4489 38.6295 17.2184 38.8332 16.717 38.8165C15.5508 38.773 14.3833 38.8076 13.2158 38.8012C12.3294 38.8012 12.0078 38.4514 12.0002 37.5404C11.971 33.7761 15.6812 30.5678 19.3926 31.3135C20.1055 31.4557 20.7779 31.6312 21.4338 32.0143Z" fill="#7C9F37"/>
<path fill-rule="evenodd" clip-rule="evenodd" d="M41.3675 38.0518C45.5095 38.052 48.8669 41.4103 48.8669 45.5523V45.7259C48.8669 49.868 45.5095 53.2263 41.3675 53.2265C37.2253 53.2265 33.8669 49.8681 33.8669 45.7259V45.5523C33.8669 41.4101 37.2253 38.0518 41.3675 38.0518ZM41.3675 41.162C41.0184 41.162 40.7352 41.4443 40.735 41.7933V44.999H37.5805C37.2274 44.999 36.9412 45.2854 36.941 45.6385C36.941 45.9918 37.2273 46.2781 37.5805 46.2781H40.735V49.4838C40.735 49.833 41.0183 50.1163 41.3675 50.1163C41.7166 50.1161 42 49.8329 42 49.4838V46.2781H45.1533C45.5066 46.2781 45.794 45.9918 45.794 45.6385C45.7938 45.2854 45.5065 44.999 45.1533 44.999H42V41.7933C41.9998 41.4444 41.7164 41.1622 41.3675 41.162Z" fill="#302916"/>
</svg>
