<?xml version="1.0" encoding="iso-8859-1"?>
<!-- Uploaded to: SVG Repo, www.svgrepo.com, Generator: SVG Repo Mixer Tools -->
<svg height="800px" width="800px" version="1.1" id="Layer_1" xmlns="http://www.w3.org/2000/svg" xmlns:xlink="http://www.w3.org/1999/xlink" 
	 viewBox="0 0 503.893 503.893" xml:space="preserve">
<g transform="translate(7 1)">
	<path style="fill:#6804ec;" d="M441.213,362.093v51.2h-102.4c0,0-5.973,5.973-17.067,12.8V217.027l34.133,8.533
		c9.387,0,17.067,7.68,17.067,17.067v68.267l17.067,8.533C407.08,327.96,441.213,343.32,441.213,362.093z M168.147,217.027v209.067
		c-11.093-6.827-17.067-12.8-17.067-12.8H48.68v-51.2c0-18.773,34.133-34.133,51.2-42.667l17.067-8.533v-68.267
		c0-9.387,7.68-17.067,17.067-17.067L168.147,217.027z"/>
	<path style="fill:#ECF4F7;" d="M244.947,123.16c14.507,0,25.6,11.093,25.6,25.6c0,14.507-11.093,25.6-25.6,25.6
		c-13.653,0-25.6-11.093-25.6-25.6C219.347,134.253,231.293,123.16,244.947,123.16"/>
	<path style="fill:#ECF4F7;" d="M286.76,46.36c0,0-16.213,8.533-41.813,8.533s-41.813-8.533-41.813-8.533l0,0
		c2.56-2.56,5.12-5.973,7.68-8.533l34.133-34.133l34.133,34.133C281.64,40.387,284.2,42.947,286.76,46.36L286.76,46.36z"/>
	<path style="fill:#6804ec;" d="M270.547,148.76c0-14.507-11.093-25.6-25.6-25.6c-13.653,0-25.6,11.093-25.6,25.6
		c0,14.507,11.947,25.6,25.6,25.6C259.453,174.36,270.547,163.267,270.547,148.76L270.547,148.76z M203.133,46.36
		c0,0,16.213,8.533,41.813,8.533s41.813-8.533,41.813-8.533l0,0c34.987,41.813,34.987,93.867,34.987,93.867v76.8v209.067
		c-15.36,9.387-41.813,21.333-76.8,21.333s-61.44-11.947-76.8-21.333V217.027v-76.8C168.147,140.227,168.147,88.173,203.133,46.36
		L203.133,46.36z"/>
</g>
<path style="fill:#51565F;" d="M397.013,503.893c-2.56,0-4.267-1.707-4.267-4.267v-51.2c0-2.56,1.707-4.267,4.267-4.267
	s4.267,1.707,4.267,4.267v51.2C401.28,502.187,399.573,503.893,397.013,503.893z M106.88,503.893c-2.56,0-4.267-1.707-4.267-4.267
	v-51.2c0-2.56,1.707-4.267,4.267-4.267c2.56,0,4.267,1.707,4.267,4.267v51.2C111.147,502.187,109.44,503.893,106.88,503.893z
	 M362.88,486.827c-2.56,0-4.267-1.707-4.267-4.267v-34.133c0-2.56,1.707-4.267,4.267-4.267s4.267,1.707,4.267,4.267v34.133
	C367.147,485.12,365.44,486.827,362.88,486.827z M141.013,486.827c-2.56,0-4.267-1.707-4.267-4.267v-34.133
	c0-2.56,1.707-4.267,4.267-4.267s4.267,1.707,4.267,4.267v34.133C145.28,485.12,143.573,486.827,141.013,486.827z M431.147,469.76
	c-2.56,0-4.267-1.707-4.267-4.267v-17.067c0-2.56,1.707-4.267,4.267-4.267s4.267,1.707,4.267,4.267v17.067
	C435.413,468.053,433.707,469.76,431.147,469.76z M72.747,469.76c-2.56,0-4.267-1.707-4.267-4.267v-17.067
	c0-2.56,1.707-4.267,4.267-4.267c2.56,0,4.267,1.707,4.267,4.267v17.067C77.013,468.053,75.307,469.76,72.747,469.76z
	 M251.947,452.693c-54.613,0-88.747-28.16-95.573-34.133H55.68c-2.56,0-4.267-1.707-4.267-4.267v-51.2
	c0-20.48,29.867-34.987,49.493-44.373l18.773-9.387v-65.707c0-11.947,9.387-21.333,21.333-21.333c2.56,0,4.267,1.707,4.267,4.267
	c0,2.56-1.707,4.267-4.267,4.267c-6.827,0-12.8,5.973-12.8,12.8v68.267c0,1.707-0.853,3.413-2.56,3.413l-21.333,10.24
	c-15.36,7.68-44.373,22.187-44.373,36.693v46.933h98.133c0.853,0,2.56,0.853,3.413,0.853c0,0,34.133,33.28,90.453,33.28
	s90.453-32.427,90.453-33.28c0.853-0.853,1.707-0.853,3.413-0.853h98.133v-46.08c0-14.507-29.013-29.013-44.373-36.693
	l-21.333-10.24c-1.707-0.853-2.56-2.56-2.56-3.413V244.48c0-6.827-5.973-12.8-12.8-12.8c-2.56,0-4.267-1.707-4.267-4.267
	s1.707-4.267,4.267-4.267c11.947,0,21.333,9.387,21.333,21.333v65.707l18.773,9.387c19.627,9.387,49.493,24.747,49.493,44.373v51.2
	c0,2.56-1.707,4.267-4.267,4.267H347.52C340.693,424.533,306.56,452.693,251.947,452.693z M251.947,418.56
	c-2.56,0-4.267-1.707-4.267-4.267v-153.6c0-2.56,1.707-4.267,4.267-4.267c2.56,0,4.267,1.707,4.267,4.267v153.6
	C256.213,416.853,254.507,418.56,251.947,418.56z M328.747,384.427c-2.56,0-4.267-1.707-4.267-4.267V141.227
	c0-0.853-0.853-49.493-31.573-88.747c-5.973,2.56-20.48,7.68-40.96,7.68c-20.48,0-34.987-5.12-40.96-7.68
	c-31.573,39.253-31.573,87.893-31.573,88.747V380.16c0,2.56-1.707,4.267-4.267,4.267c-2.56,0-4.267-1.707-4.267-4.267V141.227
	c0-2.56,0.853-62.293,43.52-105.813L248.533,1.28c1.707-1.707,4.267-1.707,5.973,0l34.133,34.133
	c43.52,43.52,43.52,103.253,43.52,105.813V380.16C333.013,382.72,331.307,384.427,328.747,384.427z M216.96,45.653
	c6.827,2.56,18.773,5.973,34.987,5.973c16.213,0,28.16-3.413,34.987-5.973c-0.853-1.707-2.56-2.56-3.413-3.413L252.8,11.52
	l-30.72,30.72C219.52,43.093,218.667,44.8,216.96,45.653z M251.947,179.627c-16.213,0-29.867-13.653-29.867-29.867
	s13.653-29.867,29.867-29.867s29.867,13.653,29.867,29.867S268.16,179.627,251.947,179.627z M251.947,128.427
	c-11.947,0-21.333,9.387-21.333,21.333c0,11.947,9.387,21.333,21.333,21.333c11.947,0,21.333-9.387,21.333-21.333
	C273.28,137.813,263.893,128.427,251.947,128.427z"/>
</svg>