<svg width="19" height="19" viewBox="0 0 32 32" fill="none" xmlns="http://www.w3.org/2000/svg">
<path d="M10.75 10.75C10.4019 10.75 10.0681 10.8883 9.82192 11.1344C9.57578 11.3806 9.4375 11.7144 9.4375 12.0625C9.4375 12.4106 9.29922 12.7444 9.05308 12.9906C8.80694 13.2367 8.4731 13.375 8.125 13.375C7.7769 13.375 7.44306 13.2367 7.19692 12.9906C6.95078 12.7444 6.8125 12.4106 6.8125 12.0625C6.8125 11.0182 7.22734 10.0167 7.96577 9.27827C8.70419 8.53984 9.70571 8.125 10.75 8.125C11.7943 8.125 12.7958 8.53984 13.5342 9.27827C14.2727 10.0167 14.6875 11.0182 14.6875 12.0625C14.6875 12.4106 14.5492 12.7444 14.3031 12.9906C14.0569 13.2367 13.7231 13.375 13.375 13.375C13.0269 13.375 12.6931 13.2367 12.4469 12.9906C12.2008 12.7444 12.0625 12.4106 12.0625 12.0625C12.0625 11.7144 11.9242 11.3806 11.6781 11.1344C11.4319 10.8883 11.0981 10.75 10.75 10.75ZM21.25 10.75C20.9019 10.75 20.5681 10.8883 20.3219 11.1344C20.0758 11.3806 19.9375 11.7144 19.9375 12.0625C19.9375 12.4106 19.7992 12.7444 19.5531 12.9906C19.3069 13.2367 18.9731 13.375 18.625 13.375C18.2769 13.375 17.9431 13.2367 17.6969 12.9906C17.4508 12.7444 17.3125 12.4106 17.3125 12.0625C17.3125 11.0182 17.7273 10.0167 18.4658 9.27827C19.2042 8.53984 20.2057 8.125 21.25 8.125C22.2943 8.125 23.2958 8.53984 24.0342 9.27827C24.7727 10.0167 25.1875 11.0182 25.1875 12.0625C25.1875 12.4106 25.0492 12.7444 24.8031 12.9906C24.5569 13.2367 24.2231 13.375 23.875 13.375C23.5269 13.375 23.1931 13.2367 22.9469 12.9906C22.7008 12.7444 22.5625 12.4106 22.5625 12.0625C22.5625 11.7144 22.4242 11.3806 22.1781 11.1344C21.9319 10.8883 21.5981 10.75 21.25 10.75ZM6.90437 16C6.71651 16 6.53083 16.0404 6.3599 16.1184C6.18898 16.1963 6.03678 16.3101 5.91359 16.4519C5.79041 16.5938 5.69911 16.7604 5.64588 16.9406C5.59264 17.1207 5.5787 17.3102 5.605 17.4962C5.96164 19.9991 7.20935 22.2893 9.11896 23.9461C11.0286 25.6029 13.4718 26.515 16 26.515C18.5282 26.515 20.9714 25.6029 22.881 23.9461C24.7906 22.2893 26.0384 19.9991 26.395 17.4962C26.4213 17.31 26.4073 17.1203 26.3539 16.9399C26.3005 16.7596 26.209 16.5928 26.0855 16.4509C25.9621 16.309 25.8096 16.1953 25.6383 16.1175C25.4671 16.0397 25.2811 15.9997 25.093 16H6.90437ZM16 23.875C14.371 23.8751 12.7819 23.3703 11.4516 22.4301C10.1213 21.49 9.11498 20.1606 8.57125 18.625H23.4287C22.885 20.1606 21.8787 21.49 20.5484 22.4301C19.2181 23.3703 17.629 23.8751 16 23.875V23.875ZM31.75 16C31.75 13.9317 31.3426 11.8836 30.5511 9.97274C29.7596 8.06186 28.5995 6.32559 27.1369 4.86307C25.6744 3.40055 23.9381 2.24041 22.0273 1.4489C20.1164 0.657386 18.0683 0.25 16 0.25C13.9317 0.25 11.8836 0.657386 9.97274 1.4489C8.06186 2.24041 6.32559 3.40055 4.86307 4.86307C3.40055 6.32559 2.24041 8.06186 1.4489 9.97274C0.657386 11.8836 0.25 13.9317 0.25 16C0.25 20.1772 1.90937 24.1832 4.86307 27.1369C7.81677 30.0906 11.8228 31.75 16 31.75C20.1772 31.75 24.1832 30.0906 27.1369 27.1369C30.0906 24.1832 31.75 20.1772 31.75 16ZM2.875 16C2.875 12.519 4.25781 9.18064 6.71922 6.71922C9.18064 4.25781 12.519 2.875 16 2.875C19.481 2.875 22.8194 4.25781 25.2808 6.71922C27.7422 9.18064 29.125 12.519 29.125 16C29.125 19.481 27.7422 22.8194 25.2808 25.2808C22.8194 27.7422 19.481 29.125 16 29.125C12.519 29.125 9.18064 27.7422 6.71922 25.2808C4.25781 22.8194 2.875 19.481 2.875 16Z" fill="black" fill-opacity="0.7"/>
</svg>
