<svg width="20" height="20" viewBox="0 0 42 42" fill="none" xmlns="http://www.w3.org/2000/svg">
<g opacity="0.7">
<path d="M23.1597 35.441L36.7502 21.525" stroke="black" stroke-width="3.5" stroke-linecap="round" stroke-linejoin="round"/>
<path d="M28.0002 10.5001L13.2757 25.5256C12.6195 26.1819 12.2509 27.072 12.2509 28.0001C12.2509 28.9281 12.6195 29.8182 13.2757 30.4746C13.932 31.1307 14.8221 31.4993 15.7502 31.4993C16.6782 31.4993 17.5683 31.1307 18.2247 30.4746L32.9492 15.4491C34.2615 14.1364 34.9987 12.3562 34.9987 10.5001C34.9987 8.6439 34.2615 6.86375 32.9492 5.55105C31.6365 4.23876 29.8563 3.50155 28.0002 3.50155C26.144 3.50155 24.3638 4.23876 23.0512 5.55105L8.32491 20.5748C6.35561 22.5441 5.24927 25.215 5.24927 28.0001C5.24927 30.7851 6.35561 33.456 8.32491 35.4253C10.2942 37.3946 12.9651 38.5009 15.7502 38.5009C18.5352 38.5009 21.2061 37.3946 23.1754 35.4253" stroke="black" stroke-width="3.5" stroke-linecap="round" stroke-linejoin="round"/>
</g>
</svg>
