<svg width="400" height="350" viewBox="0 0 400 350" fill="none" xmlns="http://www.w3.org/2000/svg">
<g opacity="0.25">
<path d="M243.24 260.6V268.064C243.24 272.679 241.407 277.105 238.144 280.368C234.881 283.631 230.455 285.464 225.84 285.464H100.504L77.104 306.2C72.44 310.328 65.192 306.928 65.192 300.6V285.488H54.608C52.3223 285.489 50.0589 285.04 47.9469 284.166C45.8349 283.292 43.9158 282.01 42.2992 280.395C40.6826 278.779 39.4002 276.86 38.5253 274.749C37.6503 272.637 37.2 270.374 37.2 268.088V149.912C37.1993 145.349 38.9907 140.969 42.1884 137.715C45.3861 134.46 49.7341 132.592 54.296 132.512V210.808C54.296 216.334 55.3845 221.805 57.4993 226.91C59.6141 232.015 62.7139 236.653 66.6214 240.56C70.529 244.467 75.168 247.566 80.2733 249.68C85.3786 251.794 90.8504 252.881 96.376 252.88H234.4L243.24 260.6Z" fill="#D61125"/>
</g>
<path d="M72.416 309.192C71.2402 309.188 70.0787 308.934 69.008 308.448C67.4988 307.771 66.2206 306.667 65.3307 305.273C64.4409 303.878 63.9783 302.254 64 300.6V286.688H54.6C49.6696 286.68 44.9435 284.717 41.4572 281.231C37.9708 277.745 36.0085 273.018 36 268.088V149.912C36.0197 145.04 37.9421 140.369 41.357 136.894C44.7719 133.419 49.4092 131.416 54.28 131.312H55.496V210.832C55.5066 221.671 59.817 232.063 67.4812 239.727C75.1454 247.391 85.5372 251.701 96.376 251.712H234.816L244.416 260.104V268.104C244.41 273.037 242.447 277.767 238.959 281.255C235.471 284.743 230.741 286.706 225.808 286.712H100.952L77.896 307.104C76.3887 308.454 74.4394 309.205 72.416 309.216V309.192ZM53.088 133.776C49.0772 134.172 45.3557 136.041 42.6427 139.021C39.9298 142.001 38.4181 145.882 38.4 149.912V268.08C38.4042 272.377 40.1132 276.497 43.1519 279.536C46.1906 282.575 50.3107 284.284 54.608 284.288H66.4V300.6C66.3841 301.792 66.7163 302.963 67.3557 303.969C67.9951 304.975 68.9141 305.772 70 306.264C71.031 306.742 72.1805 306.905 73.3037 306.731C74.4268 306.557 75.4736 306.055 76.312 305.288L100.056 284.296H225.832C230.129 284.292 234.249 282.583 237.288 279.544C240.327 276.505 242.036 272.385 242.04 268.088V261.16L233.92 254.08H96.376C84.9013 254.067 73.9003 249.503 65.7865 241.39C57.6726 233.276 53.1087 222.275 53.096 210.8V133.776H53.088Z" fill="#D61125"/>
<g opacity="0.5">
<path d="M340 143.456V210.808C340.001 216.333 338.914 221.805 336.8 226.909C334.686 232.014 331.587 236.653 327.68 240.56C323.773 244.467 319.134 247.566 314.03 249.68C308.925 251.794 303.453 252.881 297.928 252.88H278.952V276.48C278.951 277.815 278.567 279.122 277.844 280.244C277.121 281.367 276.091 282.258 274.876 282.811C273.661 283.364 272.312 283.556 270.991 283.364C269.669 283.172 268.431 282.604 267.424 281.728L243.24 260.6L234.4 252.88H96.376C90.8504 252.881 85.3786 251.794 80.2733 249.68C75.168 247.566 70.5291 244.467 66.6215 240.56C62.7139 236.653 59.6142 232.015 57.4993 226.91C55.3845 221.805 54.296 216.334 54.296 210.808V120.984C54.296 115.458 55.3845 109.987 57.4993 104.882C59.6142 99.777 62.7139 95.1386 66.6215 91.2318C70.5291 87.3249 75.168 84.2261 80.2733 82.1122C85.3786 79.9984 90.8504 78.9109 96.376 78.912H253.448C249.283 90.303 248.905 102.734 252.37 114.357C255.835 125.98 262.958 136.175 272.68 143.426C282.403 150.677 294.205 154.597 306.334 154.604C318.462 154.611 330.27 150.704 340 143.464V143.456Z" fill="#D61125"/>
</g>
<path d="M145.76 181.184C148.303 181.187 150.791 180.436 152.907 179.025C155.023 177.614 156.673 175.608 157.649 173.259C158.624 170.91 158.881 168.325 158.387 165.83C157.893 163.335 156.67 161.043 154.872 159.243C153.075 157.444 150.784 156.218 148.29 155.72C145.796 155.223 143.21 155.476 140.86 156.449C138.51 157.422 136.501 159.069 135.088 161.184C133.674 163.298 132.92 165.785 132.92 168.328C132.922 171.734 134.275 175 136.682 177.411C139.089 179.821 142.354 181.178 145.76 181.184Z" fill="#D61125"/>
<path d="M197.152 181.184C199.695 181.187 202.183 180.436 204.299 179.025C206.415 177.614 208.065 175.608 209.041 173.259C210.016 170.91 210.273 168.325 209.779 165.83C209.285 163.335 208.062 161.043 206.264 159.243C204.467 157.444 202.176 156.218 199.682 155.72C197.188 155.223 194.602 155.476 192.252 156.449C189.902 157.422 187.893 159.069 186.48 161.184C185.066 163.298 184.312 165.785 184.312 168.328C184.311 170.015 184.642 171.686 185.287 173.245C185.932 174.805 186.877 176.221 188.069 177.415C189.262 178.609 190.678 179.556 192.236 180.203C193.794 180.85 195.465 181.183 197.152 181.184Z" fill="#D61125"/>
<path d="M248.544 181.184C251.087 181.186 253.573 180.433 255.689 179.021C257.804 177.61 259.453 175.602 260.427 173.253C261.401 170.904 261.657 168.319 261.162 165.825C260.667 163.33 259.443 161.039 257.645 159.24C255.848 157.442 253.557 156.216 251.063 155.72C248.569 155.223 245.984 155.477 243.634 156.45C241.284 157.423 239.276 159.07 237.863 161.185C236.45 163.299 235.696 165.785 235.696 168.328C235.696 171.736 237.049 175.005 239.459 177.416C241.868 179.826 245.136 181.182 248.544 181.184Z" fill="#D61125"/>
<path d="M272 284.656C270.033 284.65 268.137 283.928 266.664 282.624L233.944 254.08H96.376C84.9021 254.069 73.901 249.507 65.787 241.395C57.6729 233.282 53.1087 222.282 53.096 210.808V120.984C53.1087 109.51 57.6729 98.5099 65.787 90.3973C73.901 82.2848 84.9021 77.7226 96.376 77.712H255.2L254.616 79.312C250.528 90.4635 250.15 102.637 253.538 114.02C256.926 125.404 263.898 135.39 273.418 142.491C282.938 149.593 294.497 153.431 306.374 153.435C318.251 153.439 329.812 149.608 339.336 142.512L341.248 141.08V210.816C341.235 222.289 336.672 233.288 328.56 241.4C320.448 249.512 309.449 254.075 297.976 254.088H280.152V276.488C280.159 278.059 279.709 279.598 278.857 280.918C278.005 282.237 276.787 283.281 275.352 283.92C274.281 284.406 273.12 284.66 271.944 284.664L272 284.656ZM96.376 80.112C85.5386 80.1226 75.148 84.4319 67.484 92.0944C59.82 99.7568 55.5087 110.147 55.496 120.984V210.808C55.5087 221.645 59.82 232.035 67.484 239.698C75.148 247.36 85.5386 251.669 96.376 251.68H234.776L268.168 280.816C269 281.545 270.025 282.019 271.119 282.181C272.214 282.343 273.332 282.186 274.339 281.728C275.347 281.27 276.201 280.532 276.799 279.601C277.397 278.67 277.714 277.586 277.712 276.48V251.68H297.896C308.732 251.667 319.121 247.357 326.783 239.695C334.445 232.033 338.755 221.644 338.768 210.808V145.792C328.823 152.584 316.998 156.084 304.958 155.8C292.919 155.516 281.272 151.462 271.658 144.209C262.044 136.956 254.948 126.869 251.37 115.37C247.792 103.871 247.911 91.5395 251.712 80.112H96.376Z" fill="#D61125"/>
<path d="M145.76 182.384C142.98 182.384 140.262 181.56 137.951 180.015C135.639 178.471 133.838 176.275 132.774 173.707C131.71 171.139 131.432 168.312 131.974 165.586C132.516 162.859 133.855 160.355 135.821 158.389C137.787 156.423 140.291 155.084 143.018 154.542C145.744 154 148.571 154.278 151.139 155.342C153.707 156.406 155.903 158.207 157.447 160.519C158.992 162.83 159.816 165.548 159.816 168.328C159.814 172.055 158.332 175.629 155.697 178.265C153.061 180.9 149.487 182.382 145.76 182.384ZM145.76 156.68C143.454 156.68 141.2 157.364 139.283 158.645C137.366 159.926 135.872 161.747 134.99 163.877C134.109 166.008 133.878 168.352 134.329 170.613C134.779 172.874 135.89 174.951 137.521 176.581C139.152 178.211 141.229 179.32 143.491 179.769C145.752 180.218 148.096 179.986 150.226 179.102C152.356 178.219 154.176 176.724 155.456 174.806C156.735 172.888 157.418 170.634 157.416 168.328C157.412 165.239 156.182 162.277 153.997 160.093C151.812 157.91 148.849 156.682 145.76 156.68Z" fill="#D61125"/>
<path d="M197.152 182.384C194.372 182.386 191.653 181.563 189.341 180.019C187.028 178.475 185.225 176.281 184.16 173.713C183.095 171.144 182.816 168.318 183.357 165.591C183.899 162.864 185.237 160.358 187.202 158.392C189.168 156.425 191.672 155.086 194.399 154.543C197.126 154 199.952 154.278 202.521 155.341C205.09 156.405 207.286 158.206 208.831 160.518C210.375 162.83 211.2 165.548 211.2 168.328C211.198 172.054 209.717 175.627 207.084 178.262C204.45 180.897 200.878 182.38 197.152 182.384ZM197.152 156.68C194.846 156.678 192.591 157.361 190.673 158.641C188.755 159.921 187.26 161.742 186.377 163.872C185.494 166.002 185.262 168.346 185.712 170.608C186.161 172.87 187.271 174.947 188.902 176.578C190.533 178.209 192.61 179.319 194.872 179.768C197.134 180.218 199.478 179.986 201.608 179.103C203.738 178.22 205.559 176.725 206.839 174.807C208.119 172.889 208.802 170.634 208.8 168.328C208.798 165.239 207.57 162.278 205.386 160.094C203.202 157.91 200.241 156.682 197.152 156.68Z" fill="#D61125"/>
<path d="M248.544 182.384C245.764 182.384 243.046 181.56 240.735 180.015C238.423 178.471 236.622 176.275 235.558 173.707C234.494 171.139 234.216 168.312 234.758 165.586C235.3 162.859 236.639 160.355 238.605 158.389C240.571 156.423 243.075 155.084 245.802 154.542C248.528 154 251.355 154.278 253.923 155.342C256.491 156.406 258.687 158.207 260.231 160.519C261.776 162.83 262.6 165.548 262.6 168.328C262.596 172.055 261.114 175.627 258.478 178.262C255.843 180.897 252.271 182.38 248.544 182.384ZM248.544 156.68C246.238 156.68 243.984 157.364 242.067 158.645C240.15 159.926 238.657 161.747 237.775 163.877C236.893 166.008 236.662 168.352 237.113 170.613C237.563 172.874 238.674 174.951 240.305 176.581C241.936 178.211 244.013 179.32 246.275 179.769C248.537 180.218 250.88 179.986 253.01 179.102C255.14 178.219 256.96 176.724 258.24 174.806C259.519 172.888 260.202 170.634 260.2 168.328C260.194 165.239 258.963 162.279 256.779 160.096C254.594 157.912 251.633 156.684 248.544 156.68Z" fill="#D61125"/>
<g opacity="0.25">
<path d="M342.888 141.168C341.952 141.968 340.992 142.768 340.008 143.464C328.15 152.3 313.294 156.121 298.644 154.103C283.994 152.085 270.724 144.391 261.696 132.678C252.668 120.966 248.604 106.175 250.382 91.4939C252.16 76.813 259.637 63.4192 271.201 54.2007C282.764 44.9823 297.487 40.6779 312.195 42.2157C326.903 43.7536 340.417 51.0106 349.823 62.4216C359.229 73.8327 363.774 88.4835 362.476 103.215C361.179 117.946 354.144 131.577 342.888 141.168Z" fill="#D61125"/>
</g>
<path d="M306.44 155.8C292.932 155.81 279.851 151.066 269.491 142.399C259.13 133.732 252.15 121.694 249.774 108.397C247.398 95.0997 249.778 81.3903 256.496 69.6716C263.215 57.9528 273.843 48.9724 286.519 44.3041C299.194 39.6359 313.109 39.5776 325.823 44.1395C338.537 48.7015 349.241 57.5926 356.057 69.2546C362.873 80.9167 365.368 94.6057 363.103 107.922C360.839 121.239 353.96 133.334 343.672 142.088C342.704 142.888 341.712 143.688 340.728 144.432C330.828 151.828 318.798 155.816 306.44 155.8ZM306.328 43.168C297.606 43.1787 289.011 45.259 281.25 49.238C273.488 53.2169 266.782 58.981 261.681 66.0563C256.581 73.1317 253.233 81.3164 251.912 89.9377C250.59 98.559 251.334 107.371 254.081 115.649C256.828 123.927 261.5 131.435 267.714 137.556C273.928 143.677 281.505 148.235 289.823 150.858C298.142 153.48 306.964 154.091 315.564 152.64C324.165 151.189 332.298 147.718 339.296 142.512C340.24 141.816 341.184 141.056 342.12 140.264C350.717 132.951 356.861 123.175 359.723 112.257C362.586 101.34 362.027 89.8068 358.124 79.2168C354.22 68.6267 347.16 59.4902 337.897 53.0419C328.634 46.5935 317.615 43.1442 306.328 43.16V43.168Z" fill="#D61125"/>
<path d="M328.072 115.512L323.592 119.992C322.873 120.71 321.899 121.113 320.884 121.113C319.868 121.113 318.894 120.71 318.176 119.992L306.4 108.176L294.576 119.992C294.221 120.348 293.8 120.631 293.336 120.823C292.872 121.016 292.374 121.115 291.872 121.115C291.369 121.115 290.872 121.016 290.408 120.823C289.944 120.631 289.523 120.348 289.168 119.992L284.68 115.512C284.322 115.157 284.039 114.734 283.845 114.269C283.652 113.803 283.552 113.304 283.552 112.8C283.552 112.296 283.652 111.797 283.845 111.331C284.039 110.866 284.322 110.443 284.68 110.088L296.496 98.28L284.64 86.456C284.284 86.1015 284.001 85.6801 283.809 85.2161C283.616 84.752 283.517 84.2545 283.517 83.752C283.517 83.2495 283.616 82.752 283.809 82.288C284.001 81.824 284.284 81.4026 284.64 81.048L289.128 76.56C289.482 76.204 289.904 75.9214 290.368 75.7287C290.832 75.5359 291.329 75.4366 291.832 75.4366C292.334 75.4366 292.832 75.5359 293.296 75.7287C293.76 75.9214 294.181 76.204 294.536 76.56L306.4 88.384L318.176 76.6C318.894 75.8824 319.868 75.4793 320.884 75.4793C321.899 75.4793 322.873 75.8824 323.592 76.6L328.072 81.088C328.429 81.442 328.712 81.8632 328.906 82.3273C329.099 82.7914 329.199 83.2893 329.199 83.792C329.199 84.2948 329.099 84.7926 328.906 85.2567C328.712 85.7208 328.429 86.142 328.072 86.496L316.264 98.28L328.072 110.088C328.429 110.443 328.713 110.866 328.907 111.331C329.1 111.797 329.2 112.296 329.2 112.8C329.2 113.304 329.1 113.803 328.907 114.269C328.713 114.734 328.429 115.157 328.072 115.512Z" fill="#D61125"/>
<path d="M158.616 103.248H93.248C92.9297 103.248 92.6245 103.122 92.3994 102.897C92.1744 102.672 92.048 102.366 92.048 102.048C92.048 101.73 92.1744 101.425 92.3994 101.199C92.6245 100.974 92.9297 100.848 93.248 100.848H158.616C158.934 100.848 159.239 100.974 159.465 101.199C159.69 101.425 159.816 101.73 159.816 102.048C159.816 102.366 159.69 102.672 159.465 102.897C159.239 103.122 158.934 103.248 158.616 103.248Z" fill="#D61125"/>
<path d="M197.152 103.248H171.552C171.234 103.248 170.928 103.122 170.703 102.897C170.478 102.672 170.352 102.366 170.352 102.048C170.352 101.73 170.478 101.425 170.703 101.199C170.928 100.974 171.234 100.848 171.552 100.848H197.152C197.47 100.848 197.775 100.974 198.001 101.199C198.226 101.425 198.352 101.73 198.352 102.048C198.352 102.366 198.226 102.672 198.001 102.897C197.775 103.122 197.47 103.248 197.152 103.248Z" fill="#D61125"/>
<path d="M289.864 233.4H93.248C92.9297 233.4 92.6245 233.274 92.3994 233.049C92.1744 232.823 92.048 232.518 92.048 232.2C92.048 231.882 92.1744 231.577 92.3994 231.351C92.6245 231.126 92.9297 231 93.248 231H289.864C290.182 231 290.487 231.126 290.713 231.351C290.938 231.577 291.064 231.882 291.064 232.2C291.064 232.518 290.938 232.823 290.713 233.049C290.487 233.274 290.182 233.4 289.864 233.4Z" fill="#D61125"/>
<g opacity="0.5">
<path d="M222.336 55.056C223.633 55.056 224.902 54.6712 225.981 53.9504C227.059 53.2296 227.9 52.2051 228.397 51.0064C228.893 49.8077 229.023 48.4887 228.77 47.2162C228.517 45.9437 227.892 44.7748 226.975 43.8574C226.057 42.9399 224.888 42.3151 223.616 42.062C222.343 41.8089 221.024 41.9388 219.826 42.4353C218.627 42.9318 217.602 43.7727 216.882 44.8514C216.161 45.9302 215.776 47.1985 215.776 48.496C215.776 50.2358 216.467 51.9044 217.697 53.1346C218.928 54.3648 220.596 55.056 222.336 55.056Z" fill="#D61125"/>
<path d="M176.8 64.416C177.569 64.416 178.321 64.188 178.96 63.7608C179.599 63.3335 180.098 62.7263 180.392 62.0159C180.686 61.3054 180.763 60.5237 180.613 59.7695C180.463 59.0153 180.093 58.3225 179.549 57.7788C179.005 57.235 178.313 56.8647 177.558 56.7147C176.804 56.5647 176.023 56.6417 175.312 56.936C174.602 57.2302 173.994 57.7286 173.567 58.368C173.14 59.0073 172.912 59.759 172.912 60.528C172.914 61.5585 173.324 62.5462 174.053 63.2749C174.782 64.0036 175.769 64.4139 176.8 64.416Z" fill="#D61125"/>
<path d="M319.536 293.272C322.142 293.278 324.691 292.511 326.86 291.068C329.03 289.625 330.723 287.571 331.724 285.165C332.726 282.76 332.991 280.111 332.487 277.555C331.982 274.998 330.731 272.649 328.891 270.804C327.05 268.959 324.704 267.702 322.149 267.191C319.594 266.681 316.944 266.94 314.536 267.935C312.128 268.931 310.07 270.619 308.621 272.785C307.173 274.951 306.4 277.498 306.4 280.104C306.4 283.591 307.783 286.935 310.246 289.404C312.708 291.872 316.049 293.264 319.536 293.272Z" fill="#D61125"/>
<path d="M204.976 310.128C205.972 310.13 206.945 309.836 207.774 309.284C208.602 308.732 209.249 307.947 209.631 307.027C210.013 306.108 210.114 305.096 209.92 304.119C209.727 303.143 209.248 302.245 208.545 301.541C207.842 300.836 206.945 300.356 205.969 300.161C204.992 299.966 203.98 300.066 203.06 300.446C202.14 300.827 201.354 301.472 200.801 302.3C200.247 303.127 199.952 304.1 199.952 305.096C199.952 306.429 200.481 307.708 201.423 308.651C202.365 309.595 203.643 310.126 204.976 310.128Z" fill="#D61125"/>
<path d="M42.92 102.048C44.0532 102.05 45.1615 101.715 46.1045 101.087C47.0475 100.458 47.7829 99.564 48.2177 98.5175C48.6525 97.471 48.7671 96.3191 48.5469 95.2074C48.3268 94.0958 47.7819 93.0744 46.9811 92.2725C46.1804 91.4706 45.1598 90.9243 44.0484 90.7026C42.9371 90.481 41.785 90.5939 40.7379 91.0272C39.6907 91.4605 38.7957 92.1947 38.1659 93.1368C37.5362 94.079 37.2 95.1867 37.2 96.32C37.199 97.0718 37.3461 97.8165 37.6331 98.5114C37.9201 99.2063 38.3413 99.8378 38.8725 100.37C39.4038 100.902 40.0347 101.324 40.7292 101.612C41.4237 101.9 42.1682 102.048 42.92 102.048Z" fill="#D61125"/>
<path d="M357.928 170.648C359.428 170.648 360.895 170.203 362.142 169.369C363.39 168.536 364.362 167.351 364.935 165.964C365.509 164.578 365.659 163.053 365.366 161.581C365.072 160.11 364.349 158.759 363.288 157.698C362.226 156.638 360.874 155.916 359.403 155.625C357.931 155.333 356.406 155.484 355.02 156.06C353.635 156.635 352.451 157.608 351.618 158.856C350.786 160.105 350.342 161.572 350.344 163.072C350.344 164.068 350.54 165.053 350.921 165.973C351.303 166.893 351.861 167.728 352.566 168.432C353.27 169.135 354.106 169.693 355.026 170.074C355.946 170.454 356.932 170.649 357.928 170.648Z" fill="#D61125"/>
</g>
<g opacity="0.25">
<path d="M34.88 70.352H40.712C46.7923 70.3514 52.7671 71.9406 58.0436 74.962C63.3201 77.9833 67.7149 82.3318 70.792 87.576C78.1331 81.9377 87.1356 78.891 96.392 78.912H228C234.34 73.3844 242.469 70.3431 250.88 70.352H257.424C261.912 62.4971 268.225 55.8377 275.829 50.9363C283.433 46.0349 292.105 43.0354 301.112 42.1913C310.119 41.3471 319.198 42.683 327.58 46.0862C335.962 49.4894 343.402 54.8598 349.272 61.744C351.549 64.4211 353.573 67.3027 355.32 70.352H365.12C374.371 70.352 383.243 66.6771 389.784 60.1359C396.325 53.5946 400 44.7227 400 35.472C400 26.2212 396.325 17.3494 389.784 10.8081C383.243 4.26683 374.371 0.59198 365.12 0.59198H34.88C25.6293 0.59198 16.7574 4.26683 10.2161 10.8081C3.67484 17.3494 0 26.2212 0 35.472C0 44.7227 3.67484 53.5946 10.2161 60.1359C16.7574 66.6771 25.6293 70.352 34.88 70.352ZM222.336 41.936C223.633 41.936 224.902 42.3207 225.981 43.0415C227.059 43.7624 227.9 44.7869 228.397 45.9856C228.893 47.1843 229.023 48.5033 228.77 49.7758C228.517 51.0483 227.892 52.2172 226.975 53.1346C226.057 54.052 224.888 54.6768 223.616 54.9299C222.343 55.1831 221.024 55.0531 219.826 54.5566C218.627 54.0601 217.602 53.2193 216.882 52.1405C216.161 51.0617 215.776 49.7934 215.776 48.496C215.776 46.7562 216.467 45.0876 217.697 43.8574C218.928 42.6271 220.596 41.936 222.336 41.936ZM176.8 56.64C177.569 56.64 178.321 56.868 178.96 57.2952C179.599 57.7225 180.098 58.3297 180.392 59.0401C180.686 59.7505 180.763 60.5323 180.613 61.2865C180.463 62.0407 180.093 62.7335 179.549 63.2772C179.005 63.821 178.313 64.1913 177.559 64.3413C176.804 64.4913 176.023 64.4143 175.312 64.12C174.602 63.8258 173.994 63.3274 173.567 62.688C173.14 62.0487 172.912 61.297 172.912 60.528C172.914 59.4975 173.324 58.5098 174.053 57.7811C174.782 57.0524 175.769 56.6421 176.8 56.64Z" fill="#D61125"/>
<path d="M34.88 209.88H37.2V149.88C37.1983 146.387 38.2493 142.975 40.216 140.088H34.88C25.6293 140.088 16.7574 143.763 10.2161 150.304C3.67484 156.845 0 165.717 0 174.968C0 184.219 3.67484 193.091 10.2161 199.632C16.7574 206.173 25.6293 209.848 34.88 209.848V209.88Z" fill="#D61125"/>
<path d="M365.12 140.12H344.088C343.696 140.472 343.288 140.824 342.888 141.168C341.955 141.973 340.995 142.736 340.008 143.456V209.856H365.12C369.701 209.856 374.236 208.954 378.468 207.201C382.7 205.448 386.545 202.879 389.784 199.64C393.023 196.401 395.592 192.556 397.345 188.324C399.098 184.092 400 179.557 400 174.976C400 170.396 399.098 165.86 397.345 161.628C395.592 157.396 393.023 153.551 389.784 150.312C386.545 147.073 382.7 144.504 378.468 142.751C374.236 140.998 369.701 140.096 365.12 140.096V140.12ZM357.92 170.648C356.42 170.648 354.953 170.203 353.706 169.369C352.458 168.536 351.486 167.351 350.913 165.964C350.339 164.578 350.189 163.053 350.482 161.582C350.776 160.11 351.499 158.759 352.56 157.698C353.622 156.638 354.974 155.916 356.445 155.625C357.917 155.333 359.442 155.484 360.828 156.06C362.214 156.635 363.397 157.608 364.23 158.856C365.062 160.105 365.506 161.572 365.504 163.072C365.504 164.067 365.308 165.052 364.927 165.971C364.547 166.89 363.989 167.726 363.285 168.429C362.582 169.133 361.746 169.691 360.827 170.071C359.908 170.452 358.923 170.648 357.928 170.648H357.92Z" fill="#D61125"/>
<path d="M365.12 279.64H332.688C332.688 279.792 332.688 279.944 332.688 280.104C332.694 282.217 332.192 284.3 331.224 286.178C330.256 288.055 328.85 289.673 327.126 290.894C325.402 292.115 323.409 292.903 321.317 293.192C319.224 293.482 317.092 293.264 315.101 292.557C313.111 291.849 311.319 290.674 309.878 289.129C308.437 287.584 307.388 285.716 306.821 283.681C306.253 281.646 306.183 279.504 306.617 277.436C307.05 275.369 307.975 273.436 309.312 271.8C308.39 271.047 307.509 270.246 306.672 269.4C302.118 264.845 298.912 259.119 297.408 252.856H278.952V276.456C278.951 277.791 278.567 279.098 277.844 280.221C277.121 281.343 276.091 282.234 274.876 282.787C273.661 283.34 272.312 283.532 270.991 283.34C269.669 283.148 268.431 282.58 267.424 281.704L243.24 260.6V268.072C243.24 272.687 241.407 277.113 238.144 280.376C234.881 283.639 230.455 285.472 225.84 285.472H100.504L77.104 306.2C72.432 310.328 65.192 306.928 65.192 300.6V285.488H54.608C52.1495 285.489 49.7187 284.968 47.4764 283.96C45.234 282.952 43.2311 281.48 41.6 279.64H34.88C25.6293 279.64 16.7574 283.315 10.2161 289.856C3.67484 296.397 0 305.269 0 314.52C0 323.771 3.67484 332.643 10.2161 339.184C16.7574 345.725 25.6293 349.4 34.88 349.4H365.112C374.363 349.4 383.235 345.725 389.776 339.184C396.317 332.643 399.992 323.771 399.992 314.52C399.992 305.269 396.317 296.397 389.776 289.856C383.235 283.315 374.363 279.64 365.112 279.64H365.12ZM204.976 310.128C203.98 310.13 203.007 309.836 202.178 309.284C201.35 308.732 200.703 307.947 200.321 307.027C199.939 306.108 199.838 305.096 200.032 304.119C200.225 303.143 200.704 302.245 201.407 301.541C202.11 300.836 203.007 300.356 203.983 300.161C204.96 299.966 205.972 300.066 206.892 300.446C207.812 300.827 208.598 301.472 209.151 302.3C209.705 303.127 210 304.1 210 305.096C210 306.429 209.471 307.708 208.529 308.651C207.587 309.595 206.309 310.126 204.976 310.128Z" fill="#D61125"/>
</g>
<g opacity="0.25">
<path d="M353.824 266.936C357.475 266.938 361.044 265.857 364.08 263.83C367.116 261.803 369.483 258.921 370.881 255.548C372.279 252.176 372.646 248.465 371.934 244.884C371.223 241.304 369.466 238.014 366.885 235.433C364.304 232.851 361.016 231.092 357.436 230.379C353.855 229.666 350.144 230.032 346.771 231.428C343.398 232.825 340.515 235.19 338.487 238.226C336.459 241.261 335.376 244.829 335.376 248.48C335.375 250.903 335.851 253.303 336.778 255.542C337.705 257.781 339.063 259.816 340.776 261.53C342.49 263.244 344.524 264.603 346.762 265.531C349.001 266.459 351.401 266.936 353.824 266.936Z" fill="#D61125"/>
</g>
</svg>
