<svg width="18" height="18" viewBox="0 0 40 40" fill="none" xmlns="http://www.w3.org/2000/svg">
<path d="M24.226 36.1433C24.2893 36.3011 24.3994 36.4358 24.5415 36.5292C24.6835 36.6227 24.8508 36.6704 25.0208 36.6661C25.1907 36.6617 25.3553 36.6055 25.4924 36.5049C25.6295 36.4043 25.7325 36.2642 25.7877 36.1033L36.621 4.43666C36.6744 4.28898 36.6845 4.12917 36.6504 3.97592C36.6162 3.82266 36.5391 3.68231 36.4281 3.57129C36.317 3.46026 36.1767 3.38315 36.0234 3.34898C35.8702 3.31481 35.7104 3.32499 35.5627 3.37833L3.89602 14.2117C3.73518 14.2668 3.59506 14.3699 3.49447 14.5069C3.39388 14.644 3.33763 14.8086 3.33328 14.9786C3.32893 15.1486 3.37667 15.3158 3.47011 15.4579C3.56355 15.5999 3.69821 15.71 3.85602 15.7733L17.0727 21.0733C17.4905 21.2406 17.8701 21.4908 18.1886 21.8087C18.5071 22.1267 18.758 22.5058 18.926 22.9233L24.226 36.1433Z" stroke="white" stroke-width="3.33333" stroke-linecap="round" stroke-linejoin="round"/>
<path d="M36.4238 3.57829L18.1904 21.81" stroke="white" stroke-width="3.33333" stroke-linecap="round" stroke-linejoin="round"/>
</svg>
