<svg width="20" height="20" viewBox="0 0 40 40" fill="none" xmlns="http://www.w3.org/2000/svg">
<path d="M12.5 7.5C12.5 5.51088 13.2902 3.60322 14.6967 2.1967C16.1032 0.790176 18.0109 0 20 0C21.9891 0 23.8968 0.790176 25.3033 2.1967C26.7098 3.60322 27.5 5.51088 27.5 7.5V20C27.5 21.9891 26.7098 23.8968 25.3033 25.3033C23.8968 26.7098 21.9891 27.5 20 27.5C18.0109 27.5 16.1032 26.7098 14.6967 25.3033C13.2902 23.8968 12.5 21.9891 12.5 20V7.5Z" fill="white"/>
<path d="M8.75 16.25C9.08152 16.25 9.39946 16.3817 9.63388 16.6161C9.8683 16.8505 10 17.1685 10 17.5V20C10 22.6522 11.0536 25.1957 12.9289 27.0711C14.8043 28.9464 17.3478 30 20 30C22.6522 30 25.1957 28.9464 27.0711 27.0711C28.9464 25.1957 30 22.6522 30 20V17.5C30 17.1685 30.1317 16.8505 30.3661 16.6161C30.6005 16.3817 30.9185 16.25 31.25 16.25C31.5815 16.25 31.8995 16.3817 32.1339 16.6161C32.3683 16.8505 32.5 17.1685 32.5 17.5V20C32.5 23.0988 31.349 26.0872 29.2703 28.3854C27.1916 30.6835 24.3333 32.1276 21.25 32.4375V37.5H28.75C29.0815 37.5 29.3995 37.6317 29.6339 37.8661C29.8683 38.1005 30 38.4185 30 38.75C30 39.0815 29.8683 39.3995 29.6339 39.6339C29.3995 39.8683 29.0815 40 28.75 40H11.25C10.9185 40 10.6005 39.8683 10.3661 39.6339C10.1317 39.3995 10 39.0815 10 38.75C10 38.4185 10.1317 38.1005 10.3661 37.8661C10.6005 37.6317 10.9185 37.5 11.25 37.5H18.75V32.4375C15.6667 32.1276 12.8084 30.6835 10.7297 28.3854C8.65096 26.0872 7.49996 23.0988 7.5 20V17.5C7.5 17.1685 7.6317 16.8505 7.86612 16.6161C8.10054 16.3817 8.41848 16.25 8.75 16.25Z" fill="white"/>
</svg>
