<svg width="28" height="28" viewBox="0 0 28 28" fill="none" xmlns="http://www.w3.org/2000/svg">
<path d="M12.833 19.8333H15.1663V15.1666H19.833V12.8333H15.1663V8.16659H12.833V12.8333H8.16634V15.1666H12.833V19.8333ZM13.9997 25.6666C12.3858 25.6666 10.8691 25.3652 9.44967 24.7624C8.03023 24.1402 6.79551 23.3041 5.74551 22.2541C4.69551 21.2041 3.8594 19.9694 3.23717 18.5499C2.6344 17.1305 2.33301 15.6138 2.33301 13.9999C2.33301 12.386 2.6344 10.8694 3.23717 9.44992C3.8594 8.03047 4.69551 6.79575 5.74551 5.74575C6.79551 4.69575 8.03023 3.86936 9.44967 3.26658C10.8691 2.64436 12.3858 2.33325 13.9997 2.33325C15.6136 2.33325 17.1302 2.64436 18.5497 3.26658C19.9691 3.86936 21.2038 4.69575 22.2538 5.74575C23.3038 6.79575 24.1302 8.03047 24.733 9.44992C25.3552 10.8694 25.6663 12.386 25.6663 13.9999C25.6663 15.6138 25.3552 17.1305 24.733 18.5499C24.1302 19.9694 23.3038 21.2041 22.2538 22.2541C21.2038 23.3041 19.9691 24.1402 18.5497 24.7624C17.1302 25.3652 15.6136 25.6666 13.9997 25.6666ZM13.9997 23.3333C16.6052 23.3333 18.8122 22.4291 20.6205 20.6208C22.4288 18.8124 23.333 16.6055 23.333 13.9999C23.333 11.3944 22.4288 9.18742 20.6205 7.37909C18.8122 5.57075 16.6052 4.66658 13.9997 4.66658C11.3941 4.66658 9.18717 5.57075 7.37884 7.37909C5.57051 9.18742 4.66634 11.3944 4.66634 13.9999C4.66634 16.6055 5.57051 18.8124 7.37884 20.6208C9.18717 22.4291 11.3941 23.3333 13.9997 23.3333Z" fill="#FCF7F8"/>
</svg>
